<?xml version="1.0" encoding="UTF-8"?> <svg xmlns="http://www.w3.org/2000/svg" width="48" height="55.785" viewBox="0 0 48 55.785"><defs><style>.a{fill:#d91015;}.b{fill:#fff;}</style></defs><g transform="translate(-1156 -173.236)"><g transform="translate(1013.198 134.029)"><path class="a" d="M166.418,39.346a82.613,82.613,0,0,1-23.19,12.224.667.667,0,0,0-.426.628c0,15.308,6.164,29.712,23.615,42.67a.666.666,0,0,0,.77,0C184.637,81.911,190.8,67.506,190.8,52.2a.667.667,0,0,0-.426-.628c-10.483-3.761-16.432-7.7-23.209-12.243a.6.6,0,0,0-.75.02Z"></path></g><path class="b" d="M27.883,13.778,26.45,12.3a.308.308,0,0,0-.228-.1h0a.3.3,0,0,0-.228.1L16.055,22.316,12.438,18.7a.315.315,0,0,0-.456,0l-1.45,1.45a.325.325,0,0,0,0,.464l4.562,4.562a1.443,1.443,0,0,0,.953.464,1.512,1.512,0,0,0,.945-.448H17L27.891,14.243A.348.348,0,0,0,27.883,13.778Z" transform="translate(1160.795 180.705)"></path></g></svg> 