<?xml version="1.0" encoding="UTF-8"?> <svg xmlns="http://www.w3.org/2000/svg" xmlns:xlink="http://www.w3.org/1999/xlink" width="158.302" height="53.036" viewBox="0 0 158.302 53.036"><defs><style>.a{fill:#fff;}.b{clip-path:url(#a);}</style><clipPath id="a"><rect class="a" width="158.302" height="53.036"></rect></clipPath></defs><g transform="translate(0 0)"><path class="a" d="M32.081,0,.136,23.038l-.136.1L18.736,46.269h4.773L23.92,44.9h0l.11-.366.049-.162h0l.367-1.226,2.964,9.889,2.965-9.89,2.965,9.889,2.964-9.89,2.966,9.888L41.3,46.262l116.842-.036h.158V44.309l-1.9.022-114.536.036v0H39.862L39.27,46.34,36.3,36.45l-2.965,9.889-2.965-9.89L27.41,46.337l-2.964-9.89-2.375,7.925h-2.28L2.935,23.462l29.6-21.5L156.406,16.02v.006l1.9.233v-1.92L32.423.041Z" transform="translate(0 0)"></path><g transform="translate(0 0)"><g class="b"><path class="a" d="M361.485,142.117H350.916v-7.662a1.152,1.152,0,0,0-2.3,0v8.814a1.153,1.153,0,0,0,1.152,1.152h11.72a1.152,1.152,0,1,0,0-2.3" transform="translate(-292.185 -111.727)"></path><path class="a" d="M723.412,142.117H712.844v-7.662a1.152,1.152,0,0,0-2.3,0v8.814a1.153,1.153,0,0,0,1.152,1.152h11.72a1.152,1.152,0,1,0,0-2.3" transform="translate(-595.53 -111.727)"></path><path class="a" d="M802.333,135.944h11.758a1.089,1.089,0,0,0,0-2.178H802.333a1.089,1.089,0,0,0,0,2.178" transform="translate(-671.552 -112.114)"></path><path class="a" d="M814.091,163.869H803.422V161.3h9.544a1.089,1.089,0,1,0,0-2.178H802.333a1.09,1.09,0,0,0-1.089,1.089v4.747a1.09,1.09,0,0,0,1.089,1.089h11.758a1.089,1.089,0,1,0,0-2.178" transform="translate(-671.552 -133.366)"></path><path class="a" d="M449.737,133.493h-7.61a3.211,3.211,0,0,0-3.208,3.207v4.7a3.211,3.211,0,0,0,3.208,3.207h7.61a3.211,3.211,0,0,0,3.207-3.207v-4.7a3.211,3.211,0,0,0-3.207-3.207m1.087,7.91a1.088,1.088,0,0,1-1.087,1.087h-7.61a1.089,1.089,0,0,1-1.087-1.087v-4.7a1.089,1.089,0,0,1,1.087-1.087h7.61a1.088,1.088,0,0,1,1.087,1.087Z" transform="translate(-367.875 -111.885)"></path><path class="a" d="M545.645,140.686a3.205,3.205,0,0,0-1.068-2.1,3.2,3.2,0,0,0,.606-2.094,3.268,3.268,0,0,0-3.3-2.994l-8.39.02-.177,0h0a1.057,1.057,0,0,0,0,2.073l8.672.024a1.087,1.087,0,1,1,0,2.174l-8.469-.012h0a1,1,0,0,0-.839.451,1.078,1.078,0,0,0-.215.644v4.652a1.088,1.088,0,0,0,2.175,0v-3.614h7.349c.029,0,.059,0,.088,0l.385-.011a1.083,1.083,0,0,1,1.081,1.021v2.667l0,.177h.019a1.036,1.036,0,0,0,1.013.852,1.068,1.068,0,0,0,1.058-1.027Z" transform="translate(-446.273 -111.885)"></path><path class="a" d="M905.41,143.58a1.121,1.121,0,0,0-.423-.752l-4.766-3.762,4.193-3.287a1.128,1.128,0,0,0-1.4-1.772l-4.619,3.621-4.571-3.609a1.127,1.127,0,1,0-1.393,1.773l4.139,3.268-4.743,3.718a1.128,1.128,0,0,0,1.4,1.772L898.4,140.5l5.2,4.1a1.119,1.119,0,0,0,.694.241,1.149,1.149,0,0,0,.137-.008,1.128,1.128,0,0,0,.985-1.253" transform="translate(-747.117 -112.114)"></path><path class="a" d="M269.792,142.285l-5.92-8.984a1.152,1.152,0,1,0-1.929,1.259l2.71,4.112h-5.727a.952.952,0,0,0-.7.3,1.132,1.132,0,0,0-.214.248L256,142.236a1.152,1.152,0,0,0,1.962,1.207l1.657-2.478h6.547l1.7,2.579a1.145,1.145,0,0,0,.727.5,1.166,1.166,0,0,0,.24.025,1.152,1.152,0,0,0,.963-1.781" transform="translate(-214.419 -111.287)"></path><path class="a" d="M145.037,118.1a1.178,1.178,0,0,0-1.091.745,1.882,1.882,0,0,1-1.738,1.195h-12.7a1.919,1.919,0,0,1-1.887-1.946v-6.6a1.919,1.919,0,0,1,1.887-1.946h12.7a1.882,1.882,0,0,1,1.736,1.19,1.183,1.183,0,0,0,2.1.2,1.17,1.17,0,0,0,.08-1.123,4.627,4.627,0,0,0-4.193-2.69H129.788a4.622,4.622,0,0,0-4.617,4.617V117.8a4.622,4.622,0,0,0,4.617,4.617H141.93a4.635,4.635,0,0,0,4.177-2.653,1.158,1.158,0,0,0-.073-1.118,1.177,1.177,0,0,0-1-.549" transform="translate(-104.91 -89.782)"></path><path class="a" d="M620.589,137.583h11.758a1.089,1.089,0,1,0,0-2.178H620.589a1.089,1.089,0,1,0,0,2.178" transform="translate(-519.226 -113.488)"></path><path class="a" d="M621.678,166.609v-3.671h9.5a1.122,1.122,0,0,0,1.132-.98,1.09,1.09,0,0,0-1.084-1.2H620.589a1.089,1.089,0,0,0-1.089,1.089v4.76a1.089,1.089,0,1,0,2.178,0" transform="translate(-519.226 -134.739)"></path><path class="a" d="M557.227,228.185l.112.12c.035.037.07.077.106.121s.077.087.115.132l.109.132c0-.051-.008-.1-.012-.153s-.008-.1-.012-.159-.007-.1-.009-.15,0-.1,0-.15v-2.864h.576v4.152h-.576l-2.947-3.111-.076-.085c-.023-.025-.049-.054-.077-.085s-.06-.071-.085-.106a.812.812,0,0,0-.085-.1c.008.063.014.124.018.185s.008.123.012.185v3.117h-.576v-4.152h.606Z" transform="translate(-464.174 -188.761)"></path><path class="a" d="M557.87,229.029h-.692l-2.97-3.136-.077-.086c-.024-.026-.05-.055-.078-.087l-.007-.007.007.114v3.2h-.738v-4.314h.722l2.83,3,.111.119c.037.038.073.08.11.125l.061.069,0-.059c0-.052-.007-.1-.009-.153s0-.1,0-.153v-2.945h.738Zm-.622-.162h.46v-3.99h-.414v2.783c0,.05,0,.1,0,.146s0,.1.009.147l.044.57-.163-.2-.108-.132c-.037-.044-.074-.087-.113-.13s-.07-.083-.1-.119-.073-.078-.112-.121l-2.781-2.944h-.49v3.99h.414v-3.036l-.012-.18c0-.06-.009-.12-.017-.18l-.03-.235.167.168a.908.908,0,0,1,.094.11,1.249,1.249,0,0,0,.08.1l.076.084.078.087Z" transform="translate(-463.754 -188.342)"></path><path class="a" d="M557.6,228.76h-.784l-2.99-3.156-.044-.049v3.206h-.866v-4.442h.814l2.85,3.017.11.118.048.052c0-.008,0-.015,0-.023,0-.051,0-.1,0-.156v-3.009h.867Zm-.659-.29h.369v-3.862h-.286v2.719c0,.049,0,.1,0,.144s0,.1.008.145l.059.764-.4-.48c-.036-.044-.073-.086-.111-.128s-.071-.083-.1-.118l-.113-.122-2.761-2.923h-.4v3.862h.286l-.011-3.148c0-.058-.009-.117-.017-.177l-.053-.421.3.3a1,1,0,0,1,.1.118c.023.031.048.062.075.094s.053.059.075.084l.079.088Z" transform="translate(-463.422 -188.009)"></path><path class="a" d="M557.264,228.422h-.9l-2.918-3.08v3.08h-1.028v-4.6h.929l2.874,3.043.014.015v-3.058h1.028Zm-.83-.162h.668v-4.28h-.7v2.928c0,.052,0,.1,0,.153l.009.226-.149-.146-.046-.05-.111-.119-2.825-2.991h-.7v4.28h.7v-3.335l.185.207Zm.343-.053-.063-.075h-.225l-2.923-3.087-.08-.089-.077-.086c-.029-.033-.056-.067-.08-.1a.913.913,0,0,0-.092-.108l-.133-.133.024.186c.008.061.014.122.017.182l.012,3.233h-.448v-4.023h.179l0-.027.027.027h.312l2.785,2.948.113.122c.034.036.068.075.107.122s.074.083.111.128l.238.285-.039-.511c0-.05-.007-.1-.008-.148s0-.1,0-.147v-2.8h.448v4.023h-.2Zm-.018-.237h.053v-3.7h-.124v2.638c0,.048,0,.095,0,.141s0,.094.008.142Zm-.2,0h.021l-.365-.438c-.035-.044-.071-.085-.108-.125s-.071-.083-.1-.117-.074-.079-.114-.123l-2.737-2.9h-.08l.279.278a1.056,1.056,0,0,1,.109.128,1.086,1.086,0,0,0,.071.088c.025.029.048.054.068.076s.057.063.086.1Zm-3.688,0h.124l-.011-3.066c0-.052-.009-.109-.016-.167l-.059-.467h-.037Z" transform="translate(-463.003 -187.59)"></path><path class="a" d="M592.932,224.6a2.819,2.819,0,0,1,.309.032,3.485,3.485,0,0,1,.374.079,2.355,2.355,0,0,1,.4.147,2.288,2.288,0,0,1,.491.306,2.091,2.091,0,0,1,.4.423,1.861,1.861,0,0,1,.2.376,2.28,2.28,0,0,1,.109.356,2.205,2.205,0,0,1,.044.3c.006.088.009.158.009.209s-.005.141-.015.247a2.1,2.1,0,0,1-.229.759,1.7,1.7,0,0,1-.3.406,1.964,1.964,0,0,1-.282.238,2.3,2.3,0,0,1-.418.232,3.026,3.026,0,0,1-.559.176,3.261,3.261,0,0,1-.705.071q-.082,0-.25-.009a3.6,3.6,0,0,1-.385-.044q-.106-.018-.3-.062a2.157,2.157,0,0,1-.426-.15,2.423,2.423,0,0,1-.462-.286,1.753,1.753,0,0,1-.415-.473,1.681,1.681,0,0,1-.165-.341,2.778,2.778,0,0,1-.091-.321,1.678,1.678,0,0,1-.038-.268q-.006-.118-.006-.188a2.47,2.47,0,0,1,.1-.7,1.875,1.875,0,0,1,.318-.623l.112-.126a1.577,1.577,0,0,1,.188-.174,2.909,2.909,0,0,1,.268-.194,2.161,2.161,0,0,1,.383-.194,3.179,3.179,0,0,1,.5-.15,2.965,2.965,0,0,1,.635-.062c.047,0,.116,0,.206.006m-.51.517a2.558,2.558,0,0,0-.363.071,2.459,2.459,0,0,0-.419.156,1.43,1.43,0,0,0-.4.285,2.049,2.049,0,0,0-.168.2,1.258,1.258,0,0,0-.18.359,1.785,1.785,0,0,0-.071.3,2.087,2.087,0,0,0-.023.309c0,.039,0,.094.006.165a1.32,1.32,0,0,0,.038.241,2.216,2.216,0,0,0,.091.285,1.225,1.225,0,0,0,.165.291c.031.039.072.084.121.135a1.664,1.664,0,0,0,.209.177,2.124,2.124,0,0,0,.5.244,2.535,2.535,0,0,0,.838.115q.082,0,.274-.009a1.98,1.98,0,0,0,.428-.073,1.687,1.687,0,0,0,.743-.4,1.438,1.438,0,0,0,.407-.726c.008-.043.019-.1.032-.185a1.657,1.657,0,0,0,.021-.28,1.612,1.612,0,0,0-.053-.447,1.731,1.731,0,0,0-.1-.277,1.358,1.358,0,0,0-.277-.4,1.685,1.685,0,0,0-.354-.268,1.951,1.951,0,0,0-.384-.165,2.411,2.411,0,0,0-.366-.082,2.763,2.763,0,0,0-.3-.027l-.189,0q-.065,0-.227.018" transform="translate(-494.686 -188.242)"></path><path class="a" d="M592.344,228.622c-.056,0-.141,0-.254-.009a3.745,3.745,0,0,1-.394-.045c-.072-.012-.174-.033-.308-.062a2.269,2.269,0,0,1-.443-.156,2.528,2.528,0,0,1-.477-.295,1.843,1.843,0,0,1-.434-.495,1.78,1.78,0,0,1-.173-.357,2.95,2.95,0,0,1-.094-.33,1.711,1.711,0,0,1-.04-.281c0-.08-.006-.144-.006-.192a2.562,2.562,0,0,1,.1-.723,1.965,1.965,0,0,1,.331-.65l.115-.13a1.6,1.6,0,0,1,.2-.183,3.081,3.081,0,0,1,.274-.2,2.244,2.244,0,0,1,.4-.2,3.283,3.283,0,0,1,.515-.154,3.071,3.071,0,0,1,.653-.063c.048,0,.118,0,.209.006a2.964,2.964,0,0,1,.318.033,3.609,3.609,0,0,1,.382.081,2.434,2.434,0,0,1,.414.152,2.368,2.368,0,0,1,.508.316,2.185,2.185,0,0,1,.412.44,1.961,1.961,0,0,1,.212.394,2.387,2.387,0,0,1,.113.368,2.283,2.283,0,0,1,.046.311c.006.09.009.162.009.214s-.005.143-.015.254a2.16,2.16,0,0,1-.07.367,2.186,2.186,0,0,1-.168.422,1.8,1.8,0,0,1-.311.425,2.072,2.072,0,0,1-.294.248,2.378,2.378,0,0,1-.432.241,3.129,3.129,0,0,1-.574.181,3.36,3.36,0,0,1-.723.072m-.036-4.363a2.915,2.915,0,0,0-.618.06,3.123,3.123,0,0,0-.49.146,2.086,2.086,0,0,0-.368.186,2.826,2.826,0,0,0-.26.189,1.528,1.528,0,0,0-.179.165l-.11.125a1.8,1.8,0,0,0-.3.595,2.4,2.4,0,0,0-.1.677c0,.046,0,.108.006.184a1.605,1.605,0,0,0,.036.255,2.764,2.764,0,0,0,.089.311,1.613,1.613,0,0,0,.157.325,1.684,1.684,0,0,0,.4.452,2.348,2.348,0,0,0,.446.276,2.087,2.087,0,0,0,.41.145c.129.029.229.049.3.061a3.581,3.581,0,0,0,.376.043q.165.009.246.008a3.2,3.2,0,0,0,.688-.068,2.954,2.954,0,0,0,.544-.172,2.221,2.221,0,0,0,.4-.224,1.9,1.9,0,0,0,.271-.228,1.632,1.632,0,0,0,.284-.387,2.024,2.024,0,0,0,.221-.729c.01-.107.014-.185.014-.24s0-.118-.009-.2a2.091,2.091,0,0,0-.043-.288,2.192,2.192,0,0,0-.105-.343,1.793,1.793,0,0,0-.194-.36,2.005,2.005,0,0,0-.381-.406,2.213,2.213,0,0,0-.473-.3,2.275,2.275,0,0,0-.387-.142,3.473,3.473,0,0,0-.365-.078,2.764,2.764,0,0,0-.3-.031c-.089,0-.156-.006-.2-.006m.041,3.852a2.63,2.63,0,0,1-.865-.119,2.229,2.229,0,0,1-.52-.254,1.738,1.738,0,0,1-.221-.187c-.051-.052-.093-.1-.126-.141a1.319,1.319,0,0,1-.177-.312,2.308,2.308,0,0,1-.1-.3,1.441,1.441,0,0,1-.04-.256c0-.072-.006-.128-.006-.169a2.178,2.178,0,0,1,.024-.321,1.855,1.855,0,0,1,.074-.311,1.345,1.345,0,0,1,.193-.382,2.1,2.1,0,0,1,.175-.208,1.519,1.519,0,0,1,.424-.3,2.585,2.585,0,0,1,.432-.161,2.622,2.622,0,0,1,.375-.073h0c.112-.012.189-.018.236-.018l.191,0a2.925,2.925,0,0,1,.31.027,2.5,2.5,0,0,1,.378.085,2.045,2.045,0,0,1,.4.172,1.786,1.786,0,0,1,.371.28,1.459,1.459,0,0,1,.294.427,1.8,1.8,0,0,1,.1.288,1.7,1.7,0,0,1,.056.469,1.717,1.717,0,0,1-.022.293c-.014.081-.025.143-.033.186a1.53,1.53,0,0,1-.431.771,1.778,1.778,0,0,1-.778.422,2.072,2.072,0,0,1-.445.076c-.13.006-.222.009-.278.009m-.337-3.329a2.45,2.45,0,0,0-.351.068,2.39,2.39,0,0,0-.4.151,1.355,1.355,0,0,0-.378.269,1.952,1.952,0,0,0-.161.192,1.193,1.193,0,0,0-.168.336,1.726,1.726,0,0,0-.067.283,2,2,0,0,0-.023.3c0,.038,0,.092.006.16a1.252,1.252,0,0,0,.036.227,2.118,2.118,0,0,0,.088.274,1.151,1.151,0,0,0,.154.272c.029.035.067.079.114.127a1.578,1.578,0,0,0,.2.168,2.077,2.077,0,0,0,.481.233,2.467,2.467,0,0,0,.81.11c.054,0,.144,0,.27-.008a1.922,1.922,0,0,0,.41-.071,1.618,1.618,0,0,0,.709-.383,1.368,1.368,0,0,0,.384-.687c.007-.038.018-.1.031-.18a1.573,1.573,0,0,0,.02-.266,1.541,1.541,0,0,0-.05-.424,1.691,1.691,0,0,0-.095-.263,1.3,1.3,0,0,0-.262-.382,1.615,1.615,0,0,0-.337-.255,1.881,1.881,0,0,0-.367-.158,2.376,2.376,0,0,0-.353-.079,2.769,2.769,0,0,0-.292-.026l-.187,0c-.04,0-.113.006-.218.017" transform="translate(-494.268 -187.824)"></path><path class="a" d="M592.011,228.354c-.057,0-.143,0-.258-.009a3.807,3.807,0,0,1-.4-.046q-.109-.018-.311-.063a2.333,2.333,0,0,1-.456-.16,2.581,2.581,0,0,1-.489-.3,1.905,1.905,0,0,1-.449-.512,1.834,1.834,0,0,1-.178-.37,2.982,2.982,0,0,1-.1-.337,1.768,1.768,0,0,1-.041-.291c0-.081-.006-.146-.006-.2a2.626,2.626,0,0,1,.106-.741,2.029,2.029,0,0,1,.342-.671l.117-.133a1.735,1.735,0,0,1,.206-.191,3.125,3.125,0,0,1,.279-.2,2.306,2.306,0,0,1,.408-.207,3.3,3.3,0,0,1,.526-.157,3.11,3.11,0,0,1,.666-.065q.073,0,.212.006a2.935,2.935,0,0,1,.324.034,3.658,3.658,0,0,1,.389.082,2.516,2.516,0,0,1,.424.156,2.423,2.423,0,0,1,.521.325,2.229,2.229,0,0,1,.425.453,2.009,2.009,0,0,1,.219.407,2.431,2.431,0,0,1,.116.378,2.366,2.366,0,0,1,.047.32c.006.093.009.165.009.219s-.005.149-.015.26a2.244,2.244,0,0,1-.245.812,1.845,1.845,0,0,1-.322.441,2.114,2.114,0,0,1-.3.255,2.453,2.453,0,0,1-.444.247,3.192,3.192,0,0,1-.586.185,3.414,3.414,0,0,1-.737.074m-.036-4.364a2.835,2.835,0,0,0-.6.058,3.028,3.028,0,0,0-.48.143,2,2,0,0,0-.357.18,2.744,2.744,0,0,0-.255.184,1.446,1.446,0,0,0-.172.158l-.112.127a1.729,1.729,0,0,0-.287.568,2.341,2.341,0,0,0-.094.659c0,.046,0,.106.006.181a1.513,1.513,0,0,0,.035.244,2.649,2.649,0,0,0,.086.3,1.555,1.555,0,0,0,.151.312,1.616,1.616,0,0,0,.38.435,2.271,2.271,0,0,0,.434.269,2.012,2.012,0,0,0,.4.14c.128.028.226.049.295.06a3.484,3.484,0,0,0,.369.043q.162.009.242.009a3.121,3.121,0,0,0,.674-.067,2.909,2.909,0,0,0,.532-.167,2.167,2.167,0,0,0,.391-.218,1.814,1.814,0,0,0,.262-.22,1.576,1.576,0,0,0,.274-.372,1.946,1.946,0,0,0,.15-.378,1.911,1.911,0,0,0,.063-.329c.009-.1.014-.178.014-.233s0-.116-.008-.2a2.029,2.029,0,0,0-.041-.279,2.173,2.173,0,0,0-.1-.333,1.749,1.749,0,0,0-.187-.347,1.952,1.952,0,0,0-.369-.393,2.147,2.147,0,0,0-.46-.286,2.244,2.244,0,0,0-.377-.139,3.477,3.477,0,0,0-.358-.076,2.722,2.722,0,0,0-.294-.03q-.131-.006-.2-.006m.041,3.852a2.692,2.692,0,0,1-.887-.123,2.264,2.264,0,0,1-.536-.262,1.824,1.824,0,0,1-.23-.194c-.052-.054-.1-.1-.13-.145a1.391,1.391,0,0,1-.187-.329,2.331,2.331,0,0,1-.1-.3,1.473,1.473,0,0,1-.042-.268c0-.074-.006-.131-.006-.172a2.224,2.224,0,0,1,.025-.33,1.941,1.941,0,0,1,.077-.322,1.423,1.423,0,0,1,.2-.4,2.265,2.265,0,0,1,.181-.215,1.585,1.585,0,0,1,.442-.314,2.623,2.623,0,0,1,.443-.165,2.726,2.726,0,0,1,.384-.074h0c.116-.012.2-.018.243-.018l.192,0a2.979,2.979,0,0,1,.318.028,2.565,2.565,0,0,1,.388.087,2.084,2.084,0,0,1,.412.177,1.829,1.829,0,0,1,.384.29,1.517,1.517,0,0,1,.307.445,1.863,1.863,0,0,1,.108.3,1.777,1.777,0,0,1,.059.487,1.815,1.815,0,0,1-.023.3l-.033.187a1.6,1.6,0,0,1-.45.805,1.838,1.838,0,0,1-.806.438,2.113,2.113,0,0,1-.458.078c-.131.006-.224.009-.281.009m-.33-3.33a2.389,2.389,0,0,0-.342.067,2.365,2.365,0,0,0-.394.147,1.3,1.3,0,0,0-.361.257,1.991,1.991,0,0,0-.155.185,1.15,1.15,0,0,0-.158.318,1.675,1.675,0,0,0-.065.272,1.938,1.938,0,0,0-.022.287c0,.037,0,.09.006.156a1.186,1.186,0,0,0,.035.215,2.033,2.033,0,0,0,.085.266,1.085,1.085,0,0,0,.146.257c.026.032.063.074.109.121a1.551,1.551,0,0,0,.192.161,2.012,2.012,0,0,0,.464.224,2.407,2.407,0,0,0,.789.106q.08,0,.267-.008a1.867,1.867,0,0,0,.4-.069,1.551,1.551,0,0,0,.682-.368,1.286,1.286,0,0,0,.366-.655l.03-.175a1.506,1.506,0,0,0,.019-.255,1.479,1.479,0,0,0-.047-.406,1.63,1.63,0,0,0-.091-.253,1.244,1.244,0,0,0-.249-.364,1.555,1.555,0,0,0-.323-.244,1.806,1.806,0,0,0-.355-.152,2.267,2.267,0,0,0-.343-.077,2.609,2.609,0,0,0-.285-.025,2.214,2.214,0,0,0-.4.014" transform="translate(-493.935 -187.491)"></path><path class="a" d="M591.593,228.015c-.057,0-.145,0-.262-.009a3.779,3.779,0,0,1-.409-.047c-.074-.012-.179-.033-.316-.064a2.417,2.417,0,0,1-.472-.165,2.653,2.653,0,0,1-.505-.312,1.991,1.991,0,0,1-.469-.533,1.916,1.916,0,0,1-.186-.387,3.037,3.037,0,0,1-.1-.346,1.847,1.847,0,0,1-.042-.3c0-.082-.006-.149-.006-.2a2.7,2.7,0,0,1,.109-.763,2.11,2.11,0,0,1,.355-.7l.121-.137a1.8,1.8,0,0,1,.216-.2,3.193,3.193,0,0,1,.286-.208,2.4,2.4,0,0,1,.422-.214,3.391,3.391,0,0,1,.538-.161,3.193,3.193,0,0,1,.683-.067q.074,0,.216.006a3.167,3.167,0,0,1,.333.035,3.809,3.809,0,0,1,.4.084,2.575,2.575,0,0,1,.438.161,2.508,2.508,0,0,1,.537.335,2.32,2.32,0,0,1,.44.47,2.079,2.079,0,0,1,.228.424,2.492,2.492,0,0,1,.119.391,2.406,2.406,0,0,1,.049.332q.009.142.009.224c0,.064-.005.154-.016.267a2.272,2.272,0,0,1-.075.392,2.325,2.325,0,0,1-.179.45,1.932,1.932,0,0,1-.336.46,2.178,2.178,0,0,1-.313.264,2.546,2.546,0,0,1-.458.256,3.271,3.271,0,0,1-.6.19,3.51,3.51,0,0,1-.755.076m-.035-4.654a3.025,3.025,0,0,0-.648.063,3.24,3.24,0,0,0-.513.153,2.243,2.243,0,0,0-.394.2,3.064,3.064,0,0,0-.272.2,1.672,1.672,0,0,0-.2.182l-.118.134a1.945,1.945,0,0,0-.325.641,2.545,2.545,0,0,0-.1.718c0,.048,0,.112.006.191a1.713,1.713,0,0,0,.039.279,2.905,2.905,0,0,0,.093.328,1.753,1.753,0,0,0,.171.354,1.826,1.826,0,0,0,.43.49,2.478,2.478,0,0,0,.474.293,2.229,2.229,0,0,0,.439.154q.2.044.306.062a3.679,3.679,0,0,0,.392.045q.17.009.253.009a3.328,3.328,0,0,0,.72-.072,3.108,3.108,0,0,0,.571-.18,2.4,2.4,0,0,0,.429-.239,2.008,2.008,0,0,0,.29-.245,1.764,1.764,0,0,0,.309-.422,2.168,2.168,0,0,0,.237-.783c.01-.108.015-.193.015-.253s0-.123-.009-.213a2.275,2.275,0,0,0-.045-.309,2.317,2.317,0,0,0-.112-.366,1.941,1.941,0,0,0-.21-.391,2.157,2.157,0,0,0-.409-.436,2.338,2.338,0,0,0-.5-.314,2.424,2.424,0,0,0-.411-.151,3.608,3.608,0,0,0-.38-.081,2.98,2.98,0,0,0-.315-.033q-.137-.006-.209-.006m.035,4.364q-.081,0-.247-.009a3.579,3.579,0,0,1-.378-.044c-.07-.011-.17-.032-.3-.061a2.1,2.1,0,0,1-.414-.145,2.329,2.329,0,0,1-.449-.278,1.7,1.7,0,0,1-.4-.456,1.647,1.647,0,0,1-.159-.328,2.823,2.823,0,0,1-.089-.313,1.61,1.61,0,0,1-.037-.257c0-.077-.006-.139-.006-.185a2.425,2.425,0,0,1,.1-.682,1.822,1.822,0,0,1,.3-.594l.116-.131a1.532,1.532,0,0,1,.182-.167,2.841,2.841,0,0,1,.261-.19,2.1,2.1,0,0,1,.371-.188,3.14,3.14,0,0,1,.492-.147,2.909,2.909,0,0,1,.621-.06c.047,0,.114,0,.2.006a2.717,2.717,0,0,1,.3.031,3.52,3.52,0,0,1,.367.078,2.35,2.35,0,0,1,.39.144,2.235,2.235,0,0,1,.476.3,2.027,2.027,0,0,1,.384.409,1.837,1.837,0,0,1,.2.364,2.26,2.26,0,0,1,.106.346,2.114,2.114,0,0,1,.043.291c.006.086.009.155.009.2s0,.132-.014.241a2,2,0,0,1-.066.343,2.031,2.031,0,0,1-.157.393,1.65,1.65,0,0,1-.287.392,1.912,1.912,0,0,1-.273.23,2.271,2.271,0,0,1-.406.226,2.965,2.965,0,0,1-.547.173,3.22,3.22,0,0,1-.692.069m-.035-4.073a2.754,2.754,0,0,0-.586.057,2.954,2.954,0,0,0-.467.139,1.963,1.963,0,0,0-.343.173,2.7,2.7,0,0,0-.247.179,1.34,1.34,0,0,0-.163.149l-.113.127a1.667,1.667,0,0,0-.27.537,2.254,2.254,0,0,0-.091.636c0,.044,0,.1.005.177a1.435,1.435,0,0,0,.034.231,2.527,2.527,0,0,0,.084.295,1.46,1.46,0,0,0,.143.3,1.532,1.532,0,0,0,.36.413,2.191,2.191,0,0,0,.419.259,1.942,1.942,0,0,0,.381.135c.126.028.223.048.291.059a3.508,3.508,0,0,0,.36.042c.106.006.186.008.238.008a3.049,3.049,0,0,0,.657-.065,2.772,2.772,0,0,0,.517-.163,2.093,2.093,0,0,0,.377-.209,1.739,1.739,0,0,0,.25-.21,1.5,1.5,0,0,0,.26-.354,1.874,1.874,0,0,0,.205-.676c.009-.1.014-.172.014-.226s0-.113-.008-.194a1.9,1.9,0,0,0-.04-.268,2.062,2.062,0,0,0-.1-.32,1.667,1.667,0,0,0-.178-.331,1.871,1.871,0,0,0-.354-.376,2.066,2.066,0,0,0-.442-.276,2.182,2.182,0,0,0-.364-.134,3.405,3.405,0,0,0-.35-.074,2.646,2.646,0,0,0-.285-.03c-.086,0-.151-.006-.2-.006m.042,3.852a2.762,2.762,0,0,1-.914-.128,2.324,2.324,0,0,1-.555-.272,1.914,1.914,0,0,1-.242-.2c-.054-.056-.1-.107-.134-.15a1.476,1.476,0,0,1-.2-.351,2.433,2.433,0,0,1-.1-.314,1.552,1.552,0,0,1-.044-.283c0-.075-.006-.134-.006-.176a2.281,2.281,0,0,1,.026-.342,2.008,2.008,0,0,1,.08-.335,1.51,1.51,0,0,1,.215-.425,2.293,2.293,0,0,1,.188-.223,1.657,1.657,0,0,1,.464-.33,2.7,2.7,0,0,1,.457-.17,2.809,2.809,0,0,1,.4-.077c.116-.012.2-.019.252-.019l.193,0a3.037,3.037,0,0,1,.327.029,2.627,2.627,0,0,1,.4.09,2.18,2.18,0,0,1,.429.184,1.908,1.908,0,0,1,.4.3,1.593,1.593,0,0,1,.324.469,1.884,1.884,0,0,1,.113.309,1.844,1.844,0,0,1,.062.51,1.872,1.872,0,0,1-.024.318l-.033.187a1.686,1.686,0,0,1-.474.85,1.921,1.921,0,0,1-.841.457,2.189,2.189,0,0,1-.476.08c-.133.006-.228.009-.284.009m-.118-3.637c-.031,0-.1,0-.234.018a2.635,2.635,0,0,0-.372.072,2.534,2.534,0,0,0-.429.16,1.516,1.516,0,0,0-.42.3,2.212,2.212,0,0,0-.174.206,1.352,1.352,0,0,0-.19.378,1.851,1.851,0,0,0-.073.307,2.15,2.15,0,0,0-.024.318c0,.04,0,.1.006.168a1.406,1.406,0,0,0,.04.253,2.243,2.243,0,0,0,.094.293,1.318,1.318,0,0,0,.176.31c.031.038.073.085.123.137a1.755,1.755,0,0,0,.22.186,2.172,2.172,0,0,0,.515.251,2.614,2.614,0,0,0,.86.118c.055,0,.148,0,.277-.009a2.062,2.062,0,0,0,.441-.075,1.76,1.76,0,0,0,.771-.418,1.522,1.522,0,0,0,.427-.766l.032-.182a1.733,1.733,0,0,0,.021-.29,1.69,1.69,0,0,0-.055-.465,1.83,1.83,0,0,0-.1-.284,1.444,1.444,0,0,0-.292-.424,1.747,1.747,0,0,0-.367-.278,2,2,0,0,0-.4-.17,2.466,2.466,0,0,0-.375-.084,2.932,2.932,0,0,0-.309-.027l-.19,0m.118,3.346a2.485,2.485,0,0,1-.816-.111,2.067,2.067,0,0,1-.484-.234,1.621,1.621,0,0,1-.2-.171c-.047-.049-.086-.092-.114-.126a1.175,1.175,0,0,1-.158-.279,2.113,2.113,0,0,1-.089-.276,1.263,1.263,0,0,1-.037-.23q-.006-.1-.006-.161a2.051,2.051,0,0,1,.023-.3,1.766,1.766,0,0,1,.068-.286,1.231,1.231,0,0,1,.171-.341,2,2,0,0,1,.162-.193,1.39,1.39,0,0,1,.383-.273,2.42,2.42,0,0,1,.761-.221h0a2.07,2.07,0,0,1,.356-.016h.051a2.678,2.678,0,0,1,.294.026,2.337,2.337,0,0,1,.355.08,1.9,1.9,0,0,1,.371.159,1.643,1.643,0,0,1,.34.258,1.324,1.324,0,0,1,.266.388,1.735,1.735,0,0,1,.1.264,1.575,1.575,0,0,1,.05.428,1.6,1.6,0,0,1-.02.269l-.03.175a1.368,1.368,0,0,1-.39.7,1.63,1.63,0,0,1-.717.387,1.959,1.959,0,0,1-.413.071q-.19.009-.271.009m-.321-3.04h0a2.248,2.248,0,0,0-.71.206,1.225,1.225,0,0,0-.338.241,1.916,1.916,0,0,0-.148.177,1.061,1.061,0,0,0-.146.3,1.559,1.559,0,0,0-.061.258,1.879,1.879,0,0,0-.021.274c0,.036,0,.087.006.152a1.137,1.137,0,0,0,.033.2,2.012,2.012,0,0,0,.082.255,1.023,1.023,0,0,0,.135.238c.023.029.059.069.1.113a1.476,1.476,0,0,0,.182.152,1.922,1.922,0,0,0,.444.213,2.328,2.328,0,0,0,.761.1q.079,0,.263-.008a1.789,1.789,0,0,0,.379-.066,1.473,1.473,0,0,0,.648-.348,1.206,1.206,0,0,0,.343-.616l.029-.17a1.453,1.453,0,0,0,.018-.241,1.405,1.405,0,0,0-.044-.383,1.536,1.536,0,0,0-.086-.239,1.163,1.163,0,0,0-.234-.343,1.473,1.473,0,0,0-.306-.232,1.729,1.729,0,0,0-.339-.145,2.2,2.2,0,0,0-.33-.075,2.556,2.556,0,0,0-.276-.024h-.051a1.961,1.961,0,0,0-.334.015" transform="translate(-493.517 -187.071)"></path><path class="a" d="M633.564,225.214c.086,0,.162,0,.226.006l.171.012a1.323,1.323,0,0,1,.135.018c.041.008.083.017.126.029a1.137,1.137,0,0,1,.65.417,1.2,1.2,0,0,1,.226.735,1.937,1.937,0,0,1-.018.224,1.094,1.094,0,0,1-.085.3,1.127,1.127,0,0,1-.2.3.971.971,0,0,1-.368.241c-.055.02-.115.038-.179.056s-.156.036-.273.056l1.535,1.758h-.771l-1.405-1.664h-2.005v1.664h-.594v-4.152Zm-2.253,2.011h2.06q.124,0,.26-.006a1.421,1.421,0,0,0,.263-.035.928.928,0,0,0,.239-.091.661.661,0,0,0,.2-.173.724.724,0,0,0,.1-.162.669.669,0,0,0,.053-.291,1.353,1.353,0,0,0-.015-.168.652.652,0,0,0-.091-.238.582.582,0,0,0-.334-.285,1,1,0,0,0-.21-.044,2.277,2.277,0,0,0-.236-.012h-2.291Z" transform="translate(-528.642 -188.76)"></path><path class="a" d="M635.269,229.029h-.986l-1.405-1.664h-1.887v1.664h-.756v-4.314h2.91c.088,0,.165,0,.231.006l.173.012a1.434,1.434,0,0,1,.143.018c.044.009.088.019.133.031a1.222,1.222,0,0,1,.693.448,1.284,1.284,0,0,1,.242.783,1.963,1.963,0,0,1-.018.234,1.181,1.181,0,0,1-.091.319,1.211,1.211,0,0,1-.214.325,1.049,1.049,0,0,1-.4.262c-.059.022-.121.041-.188.059-.039.01-.085.021-.14.032Zm-.911-.162h.555l-1.513-1.733.143-.024c.113-.019.2-.037.266-.054s.12-.035.173-.054a.891.891,0,0,0,.335-.219,1.052,1.052,0,0,0,.186-.281,1.022,1.022,0,0,0,.079-.275,1.912,1.912,0,0,0,.017-.213,1.124,1.124,0,0,0-.21-.687,1.065,1.065,0,0,0-.605-.388c-.042-.011-.082-.021-.121-.028a1.234,1.234,0,0,0-.127-.016l-.169-.012c-.063,0-.137-.005-.221-.005H630.4v3.99h.432V227.2h2.124Zm-1.406-1.979h-2.141v-1.667h2.371a2.435,2.435,0,0,1,.244.012,1.1,1.1,0,0,1,.227.048.675.675,0,0,1,.208.114.683.683,0,0,1,.172.209.728.728,0,0,1,.1.267,1.4,1.4,0,0,1,.016.179.74.74,0,0,1-.061.327.789.789,0,0,1-.113.18.734.734,0,0,1-.222.191,1.018,1.018,0,0,1-.26.1,1.542,1.542,0,0,1-.278.037c-.092,0-.179.006-.263.006m-1.98-.162h1.98q.122,0,.256-.006a1.363,1.363,0,0,0,.248-.033.852.852,0,0,0,.218-.083.589.589,0,0,0,.176-.153.645.645,0,0,0,.091-.147.6.6,0,0,0,.045-.256,1.243,1.243,0,0,0-.014-.157.577.577,0,0,0-.081-.208.532.532,0,0,0-.131-.163.521.521,0,0,0-.158-.087.919.919,0,0,0-.193-.041,2.268,2.268,0,0,0-.227-.011h-2.21Z" transform="translate(-528.223 -188.342)"></path><path class="a" d="M635.078,228.759h-1.157l-1.405-1.664h-1.793v1.664h-.884v-4.442h2.974c.089,0,.168,0,.235.006l.174.012a1.451,1.451,0,0,1,.15.019c.046.009.091.019.138.032a1.286,1.286,0,0,1,.728.471,1.347,1.347,0,0,1,.255.821,2.086,2.086,0,0,1-.019.242,1.243,1.243,0,0,1-.1.337,1.271,1.271,0,0,1-.225.342,1.113,1.113,0,0,1-.422.279c-.063.023-.126.043-.195.062l-.038.01Zm-1.022-.29h.384l-1.5-1.714.257-.042c.111-.018.2-.036.259-.053s.117-.034.168-.053a.823.823,0,0,0,.309-.2.991.991,0,0,0,.174-.264.951.951,0,0,0,.075-.257,1.768,1.768,0,0,0,.016-.206,1.048,1.048,0,0,0-.2-.649.989.989,0,0,0-.57-.364c-.041-.011-.079-.02-.117-.027a1.174,1.174,0,0,0-.12-.016l-.168-.012c-.062,0-.135-.005-.218-.005h-2.683v3.862h.3V226.8h2.218Zm-1.436-1.851h-2.205v-1.8h2.436a2.428,2.428,0,0,1,.251.012,1.15,1.15,0,0,1,.241.051.726.726,0,0,1,.415.353.788.788,0,0,1,.108.289,1.523,1.523,0,0,1,.016.188.8.8,0,0,1-.068.355.846.846,0,0,1-.123.194.79.79,0,0,1-.239.2,1.088,1.088,0,0,1-.276.106,1.625,1.625,0,0,1-.289.039q-.139.006-.266.006m-1.915-.29h1.915c.081,0,.165,0,.253-.006a1.29,1.29,0,0,0,.236-.031.786.786,0,0,0,.2-.077.521.521,0,0,0,.157-.136.569.569,0,0,0,.084-.135.533.533,0,0,0,.038-.227,1.169,1.169,0,0,0-.013-.148.516.516,0,0,0-.072-.184.463.463,0,0,0-.116-.145.449.449,0,0,0-.138-.076.862.862,0,0,0-.18-.038,2.165,2.165,0,0,0-.22-.011H630.7Z" transform="translate(-527.891 -188.008)"></path><path class="a" d="M634.837,228.421h-1.373l-1.406-1.664h-1.674v1.664h-1.046v-4.6h3.055c.091,0,.171,0,.24.006l.176.012a1.579,1.579,0,0,1,.158.021c.048.009.1.02.145.033a1.363,1.363,0,0,1,.772.5,1.428,1.428,0,0,1,.271.87,2.172,2.172,0,0,1-.019.251,1.32,1.32,0,0,1-.1.359,1.357,1.357,0,0,1-.239.364,1.193,1.193,0,0,1-.452.3c-.039.014-.078.027-.117.039Zm-1.3-.162h.942l-1.551-1.776.165-.041c.066-.018.127-.037.188-.059a1.035,1.035,0,0,0,.389-.257,1.2,1.2,0,0,0,.211-.32,1.164,1.164,0,0,0,.09-.315,2.07,2.07,0,0,0,.018-.231,1.268,1.268,0,0,0-.239-.773,1.2,1.2,0,0,0-.684-.441c-.046-.012-.089-.022-.133-.031A1.349,1.349,0,0,0,632.8,224l-.173-.012c-.065,0-.142-.006-.23-.006H629.5v4.281h.722V226.6h1.912Zm.659-.129h-.6l-1.405-1.664h-2.1v1.664h-.465v-4.024h2.765c.085,0,.159,0,.222.005l.169.012c.047,0,.09.01.129.017s.08.017.123.029a1.066,1.066,0,0,1,.614.394,1.127,1.127,0,0,1,.214.7,1.83,1.83,0,0,1-.017.215,1.037,1.037,0,0,1-.081.28,1.067,1.067,0,0,1-.188.285.9.9,0,0,1-.34.223c-.056.02-.114.038-.177.056s-.151.035-.268.054l-.114.019Zm-.524-.162h.168l-1.474-1.689.015,0-.182,0h-2.286v-1.958h2.516a2.567,2.567,0,0,1,.259.013,1.228,1.228,0,0,1,.258.054.823.823,0,0,1,.252.137.835.835,0,0,1,.208.253.863.863,0,0,1,.118.317,1.6,1.6,0,0,1,.017.2.879.879,0,0,1-.076.391.915.915,0,0,1-.135.213.862.862,0,0,1-.26.221,1.236,1.236,0,0,1-.131.061l.078-.019c.058-.016.112-.033.162-.051a.74.74,0,0,0,.277-.18.91.91,0,0,0,.16-.242.875.875,0,0,0,.069-.235,1.717,1.717,0,0,0,.016-.2.971.971,0,0,0-.182-.6.912.912,0,0,0-.526-.334c-.04-.011-.076-.019-.111-.026a1.039,1.039,0,0,0-.112-.015l-.165-.012c-.06,0-.131-.005-.213-.005h-2.6v3.7h.142V226.3h2.337Zm-3.6-1.851H632.2c.083,0,.171,0,.262-.006a1.543,1.543,0,0,0,.275-.037,1.015,1.015,0,0,0,.255-.1.709.709,0,0,0,.214-.183.783.783,0,0,0,.114-.18.724.724,0,0,0,.06-.32,1.4,1.4,0,0,0-.016-.177.712.712,0,0,0-.1-.258.676.676,0,0,0-.168-.207.657.657,0,0,0-.2-.11,1.075,1.075,0,0,0-.224-.047,2.419,2.419,0,0,0-.242-.012h-2.355Zm2.125-.128h-2v-1.377h2.226a2.25,2.25,0,0,1,.229.011.93.93,0,0,1,.2.041.531.531,0,0,1,.163.09.542.542,0,0,1,.136.169.588.588,0,0,1,.082.212,1.263,1.263,0,0,1,.014.159.607.607,0,0,1-.047.263.655.655,0,0,1-.1.153.59.59,0,0,1-.178.153.867.867,0,0,1-.223.085,1.355,1.355,0,0,1-.251.034c-.089,0-.175.006-.256.006m-1.834-.162H632.2c.079,0,.162,0,.25-.006a1.183,1.183,0,0,0,.222-.03.7.7,0,0,0,.181-.069.439.439,0,0,0,.132-.115.5.5,0,0,0,.075-.121.442.442,0,0,0,.03-.192,1.109,1.109,0,0,0-.013-.137.448.448,0,0,0-.062-.154.4.4,0,0,0-.1-.122.374.374,0,0,0-.114-.063.788.788,0,0,0-.163-.034,2.111,2.111,0,0,0-.212-.01h-2.064Z" transform="translate(-527.472 -187.589)"></path><path class="a" d="M667.585,225.214v.494h-1.7v3.658h-.576v-3.658h-1.694v-.494Z" transform="translate(-556.201 -188.761)"></path><path class="a" d="M665.547,229.029h-.738v-3.658h-1.694v-.656h4.132v.656h-1.7Zm-.576-.162h.414v-3.658h1.7v-.332h-3.808v.332h1.694Z" transform="translate(-555.781 -188.342)"></path><path class="a" d="M665.279,228.76h-.866V225.1h-1.694v-.784h4.26v.784h-1.7Zm-.576-.29h.286v-3.658h1.7v-.2h-3.68v.2H664.7Z" transform="translate(-555.449 -188.009)"></path><path class="a" d="M664.942,228.422h-1.028v-3.658h-1.694v-.946h4.422v.946h-1.7Zm-.867-.162h.7V224.6h1.7v-.622h-4.1v.622h1.694Zm.576-.129H664.2v-3.658h-1.694v-.365h3.842v.365h-1.7Zm-.286-.162h.124v-3.658h1.7v-.041h-3.518v.041h1.694Z" transform="translate(-555.03 -187.59)"></path><path class="a" d="M696.113,225.214v1.694h3.182v-1.694h.6v4.152H699.3V227.4h-3.182v1.964h-.6v-4.152Z" transform="translate(-582.94 -188.761)"></path><path class="a" d="M699.557,229.029H698.8v-1.965h-3.02v1.965h-.762v-4.314h.756v1.694h3.02v-1.694h.762Zm-.594-.162h.432v-3.99h-.438v1.694h-3.344v-1.694h-.432v3.99h.438V226.9h3.344Z" transform="translate(-582.521 -188.342)"></path><path class="a" d="M699.288,228.76H698.4V226.8h-2.891v1.964h-.89v-4.442h.884v1.694H698.4v-1.694h.891Zm-.594-.29h.3v-3.862h-.31V226.3h-3.472v-1.694h-.3v3.862h.309v-1.965h3.472Z" transform="translate(-582.188 -188.009)"></path><path class="a" d="M698.95,228.422H697.9v-1.965h-2.73v1.965h-1.052v-4.6h1.046v1.694h2.73v-1.694h1.052Zm-.884-.162h.722v-4.28h-.728v1.694h-3.053V223.98h-.722v4.28h.728V226.3h3.053Zm.594-.129h-.466v-1.964h-3.31v1.964h-.472v-4.023h.466V225.8h3.31v-1.694h.472Zm-.3-.162h.142v-3.7h-.148v1.694h-3.634V224.27h-.142v3.7h.148v-1.964h3.634Z" transform="translate(-581.77 -187.59)"></path><path class="a" d="M749.421,225.214l2.129,4.152h-.682l-.506-1.023h-2.552l-.506,1.023h-.665l2.153-4.152Zm-1.365,2.652h2.053l-.876-1.753c-.02-.039-.036-.073-.047-.1s-.023-.054-.032-.079-.02-.053-.029-.082-.021-.066-.032-.109c-.02.063-.038.118-.056.165s-.052.123-.1.229Z" transform="translate(-625.786 -188.76)"></path><path class="a" d="M750.994,229.029h-.865l-.506-1.024h-2.452l-.506,1.024h-.848l2.237-4.314h.728Zm-.765-.162h.5l-2.046-3.99h-.531l-2.069,3.99h.481l.505-1.024h2.653Zm-.678-1.338h-2.315l.936-1.847c.048-.1.082-.176.1-.221s.035-.1.054-.161l.083-.263.072.266c.011.041.021.076.031.1s.019.054.028.079.02.051.031.077.026.059.045.1Zm-2.052-.162h1.79l-.818-1.635c-.021-.041-.037-.076-.049-.1l-.022-.053q-.03.069-.083.18Z" transform="translate(-625.097 -188.342)"></path><path class="a" d="M750.552,228.76h-1.01l-.506-1.023h-2.372l-.506,1.023h-.994l2.3-4.442h.806Zm-.83-.29h.355l-1.98-3.862H747.9l.093.346c.011.04.021.073.03.1s.018.052.027.076.019.049.03.074.026.057.044.092l.981,1.964h-2.524l.983-1.94c.047-.1.08-.171.1-.215s.034-.1.053-.157l.108-.34h-.181l-2,3.862h.336l.506-1.023h2.733Zm-2.665-1.5h1.581l-.771-1.543-.015-.03-.024.051Z" transform="translate(-624.55 -188.009)"></path><path class="a" d="M750,228.421H748.8L748.3,227.4h-2.272l-.505,1.023h-1.177l2.387-4.6h.9Zm-1.092-.162h.827l-2.195-4.281h-.707l-2.219,4.281h.81l.506-1.023H748.4Zm.617-.129h-.537l-.506-1.023h-2.632l-.506,1.023h-.519l2.086-4.024h.551Zm-.437-.162h.172l-1.9-3.7h-.039l.066.244c.01.038.02.07.029.1s.017.05.026.072.019.048.029.072.024.054.041.088l1.04,2.081h-2.786l1.043-2.057c.045-.094.077-.164.093-.207s.033-.094.052-.153l.074-.235H747l-1.918,3.7h.152l.506-1.023h2.833Zm-3.056-1.209h2.261l-.923-1.846c-.019-.037-.034-.069-.046-.1s-.021-.051-.031-.077-.019-.05-.028-.079-.02-.063-.031-.1l-.057-.212-.066.209c-.02.062-.038.116-.055.161s-.051.121-.1.222Zm2.054-.128h-1.844l.927-1.841.088.181Zm-1.581-.162h1.319l-.655-1.31Z" transform="translate(-623.862 -187.589)"></path><path class="a" d="M784.441,225.214l1.294,2.705c.039.082.077.165.115.247s.073.167.109.253c.031.071.061.141.088.212s.057.141.088.212c.031-.086.063-.171.094-.253s.065-.166.1-.253q.047-.1.091-.2c.029-.068.06-.136.091-.2l1.317-2.717h.8v4.152h-.559v-2.394q0-.264,0-.441c0-.118,0-.221.009-.312s.01-.174.018-.253.018-.165.029-.259q-.035.094-.073.188c-.026.063-.052.125-.079.188s-.054.118-.079.177-.054.117-.085.176l-1.417,2.929h-.541l-1.3-2.7q-.07-.147-.141-.291t-.135-.3l-.141-.353a3.916,3.916,0,0,1,.035.418q.006.159.006.317t.006.312v2.593h-.553v-4.152Z" transform="translate(-656.788 -188.76)"></path><path class="a" d="M788.29,228.52h-.72v-2.475q0-.265,0-.443t.008-.3l-.03.067c-.026.061-.056.121-.088.182l-1.438,2.972h-.643l-1.322-2.745q-.07-.146-.141-.291-.043-.089-.085-.181c0,.077,0,.154,0,.231,0,.1,0,.208.006.309v2.678h-.715v-4.314h.425l-.006-.043.017.043h.507l1.316,2.751c.039.083.078.166.116.249s.074.168.11.255c.031.07.061.141.089.213l.008.021.023-.061q.047-.124.1-.255c.033-.069.062-.136.092-.2s.061-.138.093-.205l1.34-2.763h.479l.036-.1-.012.1h.428Zm-.559-.162h.4v-3.99h-.286l-.052.423c-.011.093-.021.179-.029.257s-.014.16-.018.248-.007.193-.009.31,0,.264,0,.44Zm-2.247,0h.44l1.4-2.883c.032-.06.059-.117.084-.174s.052-.119.08-.178.052-.122.078-.185.049-.124.073-.186l.143-.385h-.317l-1.3,2.671c-.031.065-.061.132-.09.2s-.06.138-.092.205-.067.166-.1.247-.063.166-.094.252l-.068.188-.082-.183c-.032-.072-.062-.144-.09-.216s-.056-.139-.087-.208c-.036-.087-.072-.171-.109-.252s-.075-.164-.114-.246l-1.272-2.659h-.34l.3.753c.042.1.086.2.133.292l.141.292Zm-2.193,0h.391v-2.513c0-.1-.006-.2-.006-.312s0-.21-.006-.315a3.911,3.911,0,0,0-.035-.41l-.06-.441h-.285Z" transform="translate(-656.369 -187.833)"></path><path class="a" d="M787.6,224.318h.42v4.442h-.849v-2.539q0-.265,0-.443l-1.443,2.982h-.723l-1.439-2.989c0,.083,0,.164.006.244v2.744h-.843v-4.442h1.048l1.333,2.788c.04.084.078.167.116.25s.075.17.111.258l.036.083q.031-.081.066-.165c.033-.072.063-.138.092-.2s.062-.14.094-.208l1.358-2.8h.616Zm-.139,4.152h.269v-3.862h-.165l-.046.366c-.011.093-.021.178-.029.255s-.014.158-.017.245-.007.192-.009.308,0,.263,0,.439Zm-2.063,0h.151l1.378-2.847c.032-.06.059-.116.083-.171s.053-.12.081-.18.051-.12.077-.181.049-.123.072-.185l.111-.3h-.184l-1.278,2.635c-.03.064-.06.13-.089.2s-.061.139-.092.207-.065.162-.1.243-.062.165-.093.251Zm-.208,0h.2l-.142-.319q-.049-.109-.091-.219c-.026-.068-.055-.137-.085-.205-.036-.088-.072-.171-.109-.252s-.075-.163-.114-.245l-1.254-2.622h-.2l.266.665c.041.1.085.193.131.287Zm-2.169,0h.262v-2.448c0-.1-.006-.2-.006-.312s0-.208-.006-.312a3.788,3.788,0,0,0-.034-.4l-.052-.386h-.165Z" transform="translate(-656.037 -188.009)"></path><path class="a" d="M787.684,228.422h-1.011v-2.7l-1.308,2.7h-.825l-1.3-2.7v2.7h-1v-4.6h1.18l1.355,2.834c.04.084.079.168.117.251q.037.08.072.163c.031-.068.059-.129.085-.191s.062-.141.095-.21l1.38-2.847h1.168Zm-.849-.162h.687v-4.28h-.9l-1.335,2.754c-.031.067-.062.135-.092.2s-.059.134-.093.207c-.021.052-.043.106-.064.16l-.072.187-.113-.266c-.036-.088-.073-.174-.111-.257s-.076-.165-.115-.248l-1.311-2.742h-.916v4.28h.681V225.6c0-.078-.005-.16-.006-.244l0-.36,1.574,3.267h.622l1.581-3.267-.006.367c0,.118,0,.265,0,.442Zm.559-.129h-.431V225.8q0-.264,0-.44t.009-.31q.006-.134.018-.25c.007-.077.017-.163.029-.257l.054-.438h.318Zm-.269-.162h.107v-3.7h-.013l-.037.3c-.011.092-.021.176-.028.253s-.013.155-.017.241-.007.19-.009.306,0,.262,0,.437Zm-1.942.162h-.461l-1.424-2.955c-.046-.095-.091-.192-.132-.291l-.311-.778h.375l1.276,2.668c.039.083.078.165.115.247s.073.165.109.254c.03.068.059.138.086.207s.058.143.09.215l.065.145.054-.149c.031-.086.062-.17.094-.253s.064-.165.1-.244.064-.139.093-.208.059-.135.09-.2l1.3-2.681h.352l-.152.407c-.023.062-.047.124-.072.187s-.052.124-.077.183-.055.121-.081.18-.053.114-.085.176Zm-.359-.162h.025l-.091-.205c-.033-.074-.064-.148-.093-.222s-.054-.134-.084-.2c-.037-.089-.072-.171-.108-.251s-.075-.162-.113-.244l-1.232-2.576h-.034l.222.554c.04.094.083.189.128.282Zm1.976-3.7-1.256,2.589c-.03.062-.059.128-.087.194s-.061.14-.094.209-.063.157-.093.237-.062.165-.093.25l-.034.093,1.294-2.674c.032-.061.058-.114.082-.168s.053-.121.082-.182.05-.116.075-.178.048-.122.071-.182l.071-.189Zm-3.852,3.862h-.424v-4.023h.316l.062.456a3.882,3.882,0,0,1,.034.412c0,.1.006.209.006.314s0,.211.006.309Zm-.263-.162h.1V225.6c0-.1-.006-.2-.006-.312s0-.206-.006-.309a3.68,3.68,0,0,0-.033-.4l-.043-.316h-.013Z" transform="translate(-655.618 -187.59)"></path><path class="a" d="M829.7,225.214v.512h-3.24v1.235h3.158v.494h-3.158v1.4h3.394v.512h-3.97v-4.152Z" transform="translate(-692.204 -188.761)"></path><path class="a" d="M829.516,229.029h-4.132v-4.314h3.979v.674h-3.24v1.073h3.158v.656h-3.158v1.238h3.393Zm-3.97-.162h3.808v-.35h-3.393v-1.562h3.158v-.332h-3.158v-1.4h3.24v-.35h-3.655Z" transform="translate(-691.785 -188.342)"></path><path class="a" d="M829.248,228.76h-4.26v-4.442H829.1v.8h-3.24v.945h3.158v.784h-3.158v1.11h3.393Zm-3.97-.29h3.68v-.221h-3.393v-1.69h3.158v-.2h-3.158V224.83h3.24v-.221h-3.527Z" transform="translate(-691.453 -188.009)"></path><path class="a" d="M828.91,228.422h-4.422v-4.6h4.269v.964h-3.24v.783h3.158v.946h-3.158v.948h3.393Zm-4.26-.162h4.1v-.64h-3.393v-1.271h3.158v-.622h-3.158V224.62h3.24v-.64H824.65Zm3.97-.129h-3.841v-4.023h3.688v.383h-3.24v1.363h3.158v.366h-3.158v1.528h3.393Zm-3.679-.162h3.518v-.059h-3.393v-1.852h3.158v-.042h-3.158V224.33h3.24v-.059H824.94Z" transform="translate(-691.034 -187.59)"></path><path class="a" d="M862.616,225.214c.086,0,.162,0,.226.006l.171.012a1.311,1.311,0,0,1,.135.018c.041.008.083.017.127.029a1.138,1.138,0,0,1,.65.417,1.2,1.2,0,0,1,.226.735,1.986,1.986,0,0,1-.017.224,1.092,1.092,0,0,1-.086.3,1.124,1.124,0,0,1-.2.3.969.969,0,0,1-.368.241c-.055.02-.115.038-.179.056s-.156.036-.274.056l1.535,1.758h-.771l-1.405-1.664h-2.005v1.664h-.594v-4.152Zm-2.253,2.011h2.06q.124,0,.26-.006a1.422,1.422,0,0,0,.263-.035.931.931,0,0,0,.239-.091.662.662,0,0,0,.2-.173.722.722,0,0,0,.1-.162.67.67,0,0,0,.053-.291,1.341,1.341,0,0,0-.015-.168.648.648,0,0,0-.091-.238.582.582,0,0,0-.334-.285,1,1,0,0,0-.21-.044,2.278,2.278,0,0,0-.236-.012h-2.291Z" transform="translate(-720.619 -188.76)"></path><path class="a" d="M864.32,229.029h-.986l-1.405-1.664h-1.887v1.664h-.756v-4.314h2.91c.088,0,.165,0,.231.006l.173.012a1.423,1.423,0,0,1,.143.018c.044.009.088.019.133.031a1.222,1.222,0,0,1,.693.448,1.283,1.283,0,0,1,.242.783,1.988,1.988,0,0,1-.018.234,1.181,1.181,0,0,1-.091.319,1.219,1.219,0,0,1-.214.325,1.052,1.052,0,0,1-.4.262c-.059.021-.121.04-.188.059-.039.01-.086.021-.14.032Zm-.911-.162h.555l-1.513-1.733.143-.024c.113-.019.2-.037.266-.054s.12-.035.173-.054a.892.892,0,0,0,.335-.219,1.052,1.052,0,0,0,.186-.281,1.023,1.023,0,0,0,.079-.275,1.859,1.859,0,0,0,.017-.213,1.125,1.125,0,0,0-.211-.687,1.064,1.064,0,0,0-.605-.388c-.042-.011-.082-.021-.121-.028a1.235,1.235,0,0,0-.127-.016l-.169-.012c-.063,0-.137-.005-.221-.005h-2.748v3.99h.432V227.2H862ZM862,226.888h-2.141v-1.667h2.371a2.435,2.435,0,0,1,.244.012,1.107,1.107,0,0,1,.227.048.664.664,0,0,1,.379.323.727.727,0,0,1,.1.267,1.388,1.388,0,0,1,.016.179.74.74,0,0,1-.061.327.787.787,0,0,1-.113.18.737.737,0,0,1-.222.191,1.018,1.018,0,0,1-.26.1,1.54,1.54,0,0,1-.277.037q-.138.006-.263.006m-1.979-.162H862c.081,0,.166,0,.256-.006a1.364,1.364,0,0,0,.248-.033.85.85,0,0,0,.218-.083.586.586,0,0,0,.176-.153.649.649,0,0,0,.091-.147.6.6,0,0,0,.045-.256,1.264,1.264,0,0,0-.014-.157.582.582,0,0,0-.081-.208.536.536,0,0,0-.131-.163.52.52,0,0,0-.158-.087.923.923,0,0,0-.193-.041,2.267,2.267,0,0,0-.227-.011h-2.209Z" transform="translate(-720.199 -188.342)"></path><path class="a" d="M864.129,228.759h-1.157l-1.406-1.664h-1.793v1.664h-.884v-4.442h2.974c.089,0,.168,0,.235.006l.174.012a1.447,1.447,0,0,1,.15.019c.046.009.091.019.139.032a1.286,1.286,0,0,1,.728.471,1.347,1.347,0,0,1,.255.821,2.086,2.086,0,0,1-.019.242,1.244,1.244,0,0,1-.1.337,1.276,1.276,0,0,1-.225.342,1.116,1.116,0,0,1-.422.279c-.063.023-.126.043-.195.062l-.038.01Zm-1.022-.29h.384l-1.5-1.714.257-.042c.111-.018.2-.036.259-.053s.117-.034.168-.053a.822.822,0,0,0,.309-.2,1,1,0,0,0,.174-.264.959.959,0,0,0,.074-.257,1.73,1.73,0,0,0,.017-.206,1.049,1.049,0,0,0-.2-.649.991.991,0,0,0-.57-.364c-.041-.011-.079-.02-.117-.027a1.169,1.169,0,0,0-.12-.016l-.167-.012c-.062,0-.135-.005-.218-.005h-2.684v3.862h.3V226.8H861.7Zm-1.436-1.851h-2.205v-1.8H861.9a2.426,2.426,0,0,1,.251.012,1.15,1.15,0,0,1,.241.051.744.744,0,0,1,.227.124.751.751,0,0,1,.188.229.788.788,0,0,1,.108.289,1.513,1.513,0,0,1,.016.188.8.8,0,0,1-.068.355.84.84,0,0,1-.123.194.792.792,0,0,1-.239.2,1.089,1.089,0,0,1-.276.106,1.627,1.627,0,0,1-.289.039c-.092,0-.181.006-.266.006m-1.915-.29h1.915c.081,0,.165,0,.254-.006a1.289,1.289,0,0,0,.236-.031.785.785,0,0,0,.2-.077.52.52,0,0,0,.157-.136.579.579,0,0,0,.084-.135.534.534,0,0,0,.038-.227,1.181,1.181,0,0,0-.013-.148.519.519,0,0,0-.073-.184.462.462,0,0,0-.116-.145.447.447,0,0,0-.138-.076.859.859,0,0,0-.18-.038,2.168,2.168,0,0,0-.22-.011h-2.145Z" transform="translate(-719.867 -188.008)"></path><path class="a" d="M863.888,228.421h-1.373l-1.405-1.664h-1.674v1.664h-1.046v-4.6h3.055c.091,0,.171,0,.239.006l.176.012a1.56,1.56,0,0,1,.158.021c.048.009.1.02.145.033a1.361,1.361,0,0,1,.772.5,1.428,1.428,0,0,1,.271.87,2.164,2.164,0,0,1-.019.251,1.316,1.316,0,0,1-.1.359,1.354,1.354,0,0,1-.239.364,1.194,1.194,0,0,1-.452.3c-.039.014-.078.027-.117.039Zm-1.3-.162h.942l-1.551-1.776.165-.041c.066-.018.127-.037.188-.059a1.034,1.034,0,0,0,.389-.257,1.188,1.188,0,0,0,.211-.32,1.167,1.167,0,0,0,.09-.315,2.033,2.033,0,0,0,.018-.231,1.269,1.269,0,0,0-.239-.773,1.2,1.2,0,0,0-.684-.441c-.046-.012-.089-.022-.133-.031a1.345,1.345,0,0,0-.141-.018l-.173-.012c-.065,0-.142-.006-.23-.006h-2.893v4.281h.723V226.6h1.911Zm.659-.129h-.6l-1.406-1.664h-2.1v1.664h-.465v-4.024h2.765c.085,0,.159,0,.222.005l.169.012c.047,0,.091.01.129.017s.08.017.124.029a1.066,1.066,0,0,1,.614.394,1.127,1.127,0,0,1,.214.7,1.811,1.811,0,0,1-.017.215,1.027,1.027,0,0,1-.081.28,1.068,1.068,0,0,1-.188.285.9.9,0,0,1-.339.223c-.056.02-.115.038-.177.056s-.151.035-.267.054l-.114.019Zm-.524-.162h.168l-1.474-1.689.015,0-.182,0h-2.286v-1.958h2.516a2.565,2.565,0,0,1,.259.013,1.23,1.23,0,0,1,.258.054.824.824,0,0,1,.252.137.837.837,0,0,1,.208.253.856.856,0,0,1,.117.317,1.587,1.587,0,0,1,.017.2.878.878,0,0,1-.076.39.923.923,0,0,1-.135.213.864.864,0,0,1-.26.221,1.2,1.2,0,0,1-.13.061l.078-.019c.058-.016.112-.033.162-.051a.735.735,0,0,0,.277-.179.908.908,0,0,0,.16-.242.865.865,0,0,0,.068-.235,1.693,1.693,0,0,0,.016-.2.972.972,0,0,0-.182-.6.913.913,0,0,0-.526-.334c-.039-.011-.076-.019-.111-.026a1.035,1.035,0,0,0-.111-.015l-.166-.012c-.06,0-.131-.005-.213-.005h-2.6v3.7h.142V226.3h2.337Zm-3.6-1.851h2.124c.083,0,.171,0,.262-.006a1.546,1.546,0,0,0,.275-.037,1.007,1.007,0,0,0,.255-.1.708.708,0,0,0,.214-.183.787.787,0,0,0,.114-.18.727.727,0,0,0,.06-.32,1.41,1.41,0,0,0-.016-.177.707.707,0,0,0-.1-.258.678.678,0,0,0-.168-.207.659.659,0,0,0-.2-.11,1.074,1.074,0,0,0-.224-.047,2.421,2.421,0,0,0-.242-.012h-2.354Zm2.124-.128h-2v-1.377h2.226a2.249,2.249,0,0,1,.229.011.924.924,0,0,1,.2.041.527.527,0,0,1,.163.09.536.536,0,0,1,.136.169.6.6,0,0,1,.082.212,1.3,1.3,0,0,1,.014.16.605.605,0,0,1-.047.263.651.651,0,0,1-.1.153.586.586,0,0,1-.178.153.869.869,0,0,1-.223.085,1.359,1.359,0,0,1-.252.034c-.089,0-.175.006-.256.006m-1.834-.162h1.834c.079,0,.162,0,.25-.006a1.191,1.191,0,0,0,.222-.03.7.7,0,0,0,.181-.069.435.435,0,0,0,.132-.115.487.487,0,0,0,.075-.121.446.446,0,0,0,.03-.192,1.131,1.131,0,0,0-.013-.137.449.449,0,0,0-.062-.153.4.4,0,0,0-.1-.123.371.371,0,0,0-.114-.063.769.769,0,0,0-.163-.034,2.106,2.106,0,0,0-.212-.01h-2.064Z" transform="translate(-719.448 -187.589)"></path><rect class="a" width="0.6" height="4.152" transform="translate(145.272 36.454)"></rect><path class="a" d="M897.762,229.029H897v-4.314h.762Zm-.6-.162h.438v-3.99h-.438Z" transform="translate(-751.809 -188.342)"></path><path class="a" d="M897.494,228.759h-.89v-4.442h.89Zm-.6-.29h.309v-3.862h-.309Z" transform="translate(-751.477 -188.008)"></path><path class="a" d="M897.156,228.422H896.1v-4.6h1.052Zm-.89-.162h.728v-4.28h-.728Zm.6-.129h-.471v-4.023h.471Zm-.31-.162h.148v-3.7h-.148Z" transform="translate(-751.058 -187.59)"></path><path class="a" d="M914.682,225.792c-.039-.067-.076-.127-.112-.182a1.1,1.1,0,0,0-.171-.188,1.715,1.715,0,0,0-.2-.153,2.174,2.174,0,0,0-.453-.2,2.362,2.362,0,0,0-.747-.1q-.065,0-.2.006a2.253,2.253,0,0,0-.321.041,2.689,2.689,0,0,0-.382.106,1.664,1.664,0,0,0-.382.194,1.129,1.129,0,0,1-.094.079,1.175,1.175,0,0,0-.141.132,1.815,1.815,0,0,0-.126.159,1.148,1.148,0,0,0-.123.226,1.69,1.69,0,0,0-.094.309,1.842,1.842,0,0,0-.038.394q0,.065.009.179a1.776,1.776,0,0,0,.041.256,2,2,0,0,0,.1.3,1.353,1.353,0,0,0,.182.312,1.321,1.321,0,0,0,.315.3,2.155,2.155,0,0,0,.338.185,1.635,1.635,0,0,0,.3.1l.2.041a2.151,2.151,0,0,0,.291.026l.185,0c.047,0,.128,0,.241-.009a2.476,2.476,0,0,0,.388-.056,2,2,0,0,0,.444-.156,1.365,1.365,0,0,0,.414-.315,1.523,1.523,0,0,0,.127-.153,1.866,1.866,0,0,0,.1-.165l.624.13q-.1.182-.165.276t-.13.171a1.791,1.791,0,0,1-.376.335,2.5,2.5,0,0,1-.42.224,2.629,2.629,0,0,1-.426.135q-.212.047-.388.071a2.9,2.9,0,0,1-.312.026l-.194,0a3.734,3.734,0,0,1-.559-.038,3.011,3.011,0,0,1-.441-.1,2.371,2.371,0,0,1-.341-.135q-.147-.074-.259-.144c-.055-.035-.1-.069-.147-.1s-.088-.071-.135-.114c-.031-.032-.076-.079-.132-.141a1.7,1.7,0,0,1-.174-.235q-.053-.083-.112-.194a1.817,1.817,0,0,1-.109-.259,2.022,2.022,0,0,1-.079-.332,2.687,2.687,0,0,1-.029-.415c0-.051,0-.121.006-.209a1.9,1.9,0,0,1,.042-.3,2.246,2.246,0,0,1,.109-.356,1.59,1.59,0,0,1,.209-.371c.031-.043.069-.09.112-.141a2.106,2.106,0,0,1,.188-.188,2.631,2.631,0,0,1,.235-.177,2.768,2.768,0,0,1,.247-.147,2.237,2.237,0,0,1,.415-.159,3.092,3.092,0,0,1,.406-.085q.192-.027.335-.032c.1,0,.164-.006.2-.006s.127,0,.241.009a3.259,3.259,0,0,1,.388.047,3.758,3.758,0,0,1,.464.115,2.1,2.1,0,0,1,.471.211c.043.027.1.07.179.127a2.313,2.313,0,0,1,.25.22,2,2,0,0,1,.221.279c.053.084.093.15.12.2Z" transform="translate(-763.099 -188.121)"></path><path class="a" d="M912.569,228.494a3.824,3.824,0,0,1-.571-.039,3.092,3.092,0,0,1-.453-.1,2.449,2.449,0,0,1-.353-.14c-.1-.05-.189-.1-.266-.148-.057-.037-.108-.072-.153-.107s-.091-.074-.14-.119-.08-.083-.138-.147a1.786,1.786,0,0,1-.182-.247c-.036-.056-.075-.123-.115-.2a1.913,1.913,0,0,1-.114-.27,2.11,2.11,0,0,1-.083-.346,2.747,2.747,0,0,1-.03-.427c0-.052,0-.123.006-.212a1.959,1.959,0,0,1,.043-.313,2.321,2.321,0,0,1,.112-.368,1.679,1.679,0,0,1,.219-.389c.032-.044.07-.092.115-.145a2.165,2.165,0,0,1,.2-.2,2.811,2.811,0,0,1,.245-.184,2.846,2.846,0,0,1,.254-.151,2.332,2.332,0,0,1,.431-.165,3.253,3.253,0,0,1,.416-.087c.133-.018.245-.029.343-.033s.166-.006.206-.006.129,0,.245.009a3.309,3.309,0,0,1,.4.048,3.873,3.873,0,0,1,.474.117,2.18,2.18,0,0,1,.488.22c.046.029.108.072.186.131a2.379,2.379,0,0,1,.259.228,2.054,2.054,0,0,1,.232.293c.054.086.095.152.122.2l.056.1-.795.171-.03-.05q-.058-.1-.11-.179a1.025,1.025,0,0,0-.156-.172,1.674,1.674,0,0,0-.19-.145,2.09,2.09,0,0,0-.435-.188,2.292,2.292,0,0,0-.721-.1c-.043,0-.109,0-.2.006a2.144,2.144,0,0,0-.308.04,2.607,2.607,0,0,0-.371.1,1.584,1.584,0,0,0-.364.185.8.8,0,0,1-.09.076,1.1,1.1,0,0,0-.131.123,1.76,1.76,0,0,0-.12.151,1.072,1.072,0,0,0-.114.211,1.66,1.66,0,0,0-.09.294,1.786,1.786,0,0,0-.036.377c0,.041,0,.1.008.173a1.706,1.706,0,0,0,.039.244,1.887,1.887,0,0,0,.093.287,1.289,1.289,0,0,0,.172.293,1.247,1.247,0,0,0,.295.279,2.079,2.079,0,0,0,.326.178,1.547,1.547,0,0,0,.288.1l.2.041a2.081,2.081,0,0,0,.278.025l.184,0c.046,0,.125,0,.237-.009a2.408,2.408,0,0,0,.375-.054,1.919,1.919,0,0,0,.426-.149,1.3,1.3,0,0,0,.39-.3,1.414,1.414,0,0,0,.12-.145,1.638,1.638,0,0,0,.1-.157l.029-.052.789.164-.053.1c-.069.127-.124.219-.169.283s-.09.124-.134.177a1.871,1.871,0,0,1-.394.351,2.565,2.565,0,0,1-.434.231,2.727,2.727,0,0,1-.439.139c-.141.031-.274.055-.395.072a3.067,3.067,0,0,1-.321.027l-.2,0m-.012-4.381c-.039,0-.105,0-.2.006s-.2.014-.328.032a3.109,3.109,0,0,0-.4.083,2.179,2.179,0,0,0-.4.153,2.633,2.633,0,0,0-.467.313,1.992,1.992,0,0,0-.178.179q-.063.074-.108.136a1.525,1.525,0,0,0-.2.353,2.225,2.225,0,0,0-.1.343,1.835,1.835,0,0,0-.04.287c0,.087-.006.155-.006.205a2.6,2.6,0,0,0,.028.4,1.922,1.922,0,0,0,.076.319,1.709,1.709,0,0,0,.1.247c.038.073.074.135.108.189a1.608,1.608,0,0,0,.165.224c.056.061.1.107.129.138s.086.076.127.108.089.065.141.1a2.83,2.83,0,0,0,.251.14,2.31,2.31,0,0,0,.329.13,2.95,2.95,0,0,0,.429.1,3.66,3.66,0,0,0,.546.037l.192,0a2.882,2.882,0,0,0,.3-.026c.116-.016.245-.039.381-.069a2.554,2.554,0,0,0,.413-.131,2.375,2.375,0,0,0,.407-.216,1.7,1.7,0,0,0,.359-.32c.041-.049.083-.1.125-.164.029-.043.064-.1.107-.174l-.458-.1c-.026.044-.052.084-.078.12a1.552,1.552,0,0,1-.133.161,1.449,1.449,0,0,1-.439.333,2.081,2.081,0,0,1-.462.162,2.572,2.572,0,0,1-.4.058c-.116.006-.2.009-.246.009l-.187,0a2.285,2.285,0,0,1-.3-.027l-.208-.042a1.734,1.734,0,0,1-.318-.105,2.236,2.236,0,0,1-.351-.192,1.406,1.406,0,0,1-.334-.315,1.444,1.444,0,0,1-.193-.331,2.068,2.068,0,0,1-.1-.313,1.9,1.9,0,0,1-.043-.267c-.006-.079-.009-.141-.009-.186a1.968,1.968,0,0,1,.04-.411,1.82,1.82,0,0,1,.1-.323,1.252,1.252,0,0,1,.132-.242,1.925,1.925,0,0,1,.132-.166,1.3,1.3,0,0,1,.152-.142.96.96,0,0,0,.086-.072,1.732,1.732,0,0,1,.413-.213,2.776,2.776,0,0,1,.393-.109,2.331,2.331,0,0,1,.333-.043c.094,0,.162-.006.207-.006a2.454,2.454,0,0,1,.773.107,2.208,2.208,0,0,1,.471.206,1.786,1.786,0,0,1,.21.16,1.2,1.2,0,0,1,.183.2c.028.044.057.089.086.138l.462-.1-.062-.1a1.893,1.893,0,0,0-.211-.267,2.2,2.2,0,0,0-.239-.21c-.074-.056-.133-.1-.175-.124a2.038,2.038,0,0,0-.451-.2,3.746,3.746,0,0,0-.455-.112,3.228,3.228,0,0,0-.379-.046q-.167-.009-.237-.009" transform="translate(-762.68 -187.702)"></path><path class="a" d="M912.236,228.225a3.9,3.9,0,0,1-.581-.039,3.163,3.163,0,0,1-.463-.105,2.511,2.511,0,0,1-.362-.144,3.092,3.092,0,0,1-.271-.151c-.06-.038-.112-.075-.158-.111s-.094-.076-.145-.122-.083-.086-.142-.151a1.848,1.848,0,0,1-.189-.256c-.036-.057-.076-.125-.117-.2a2,2,0,0,1-.118-.28,2.179,2.179,0,0,1-.085-.356,2.826,2.826,0,0,1-.031-.437q0-.079.006-.215a2.037,2.037,0,0,1,.044-.323,2.465,2.465,0,0,1,.115-.379,1.754,1.754,0,0,1,.228-.4c.032-.044.072-.094.117-.148a2.269,2.269,0,0,1,.2-.2,2.822,2.822,0,0,1,.252-.19c.087-.057.174-.109.26-.155a2.4,2.4,0,0,1,.444-.17,3.335,3.335,0,0,1,.424-.089q.2-.027.349-.034t.209-.006q.073,0,.249.009a3.406,3.406,0,0,1,.406.049,4,4,0,0,1,.482.119,2.272,2.272,0,0,1,.5.226c.048.03.111.075.191.135a2.389,2.389,0,0,1,.266.234,2.133,2.133,0,0,1,.241.3c.054.087.1.154.123.2l.1.173-.927.2-.053-.09c-.038-.065-.074-.124-.108-.177a1,1,0,0,0-.145-.158,1.575,1.575,0,0,0-.183-.14,2.058,2.058,0,0,0-.42-.182,2.238,2.238,0,0,0-.7-.1c-.042,0-.108,0-.2.006a2.051,2.051,0,0,0-.3.039,2.52,2.52,0,0,0-.361.1,1.531,1.531,0,0,0-.349.178.649.649,0,0,1-.086.074,1.031,1.031,0,0,0-.124.116,1.708,1.708,0,0,0-.115.145,1,1,0,0,0-.107.2,1.546,1.546,0,0,0-.086.283,1.713,1.713,0,0,0-.035.364c0,.04,0,.1.008.168a1.681,1.681,0,0,0,.038.235,1.838,1.838,0,0,0,.09.277,1.207,1.207,0,0,0,.163.278,1.184,1.184,0,0,0,.279.265,2.07,2.07,0,0,0,.315.172,1.493,1.493,0,0,0,.276.092c.09.019.156.033.2.04a2.047,2.047,0,0,0,.267.024l.183,0c.046,0,.124,0,.234-.009a2.358,2.358,0,0,0,.365-.053,1.864,1.864,0,0,0,.412-.145,1.218,1.218,0,0,0,.37-.282,1.347,1.347,0,0,0,.115-.139,1.721,1.721,0,0,0,.095-.152l.052-.093.92.192-.094.172q-.105.19-.172.288c-.047.067-.092.128-.138.182a1.94,1.94,0,0,1-.407.363,2.617,2.617,0,0,1-.445.236,2.791,2.791,0,0,1-.45.143q-.219.048-.4.073a3.069,3.069,0,0,1-.328.028l-.2,0m-.012-4.381q-.057,0-.2.006t-.321.031a3.028,3.028,0,0,0-.387.081,2.114,2.114,0,0,0-.388.149,2.489,2.489,0,0,0-.232.138,2.456,2.456,0,0,0-.223.167,1.951,1.951,0,0,0-.171.171c-.041.048-.076.092-.1.133a1.477,1.477,0,0,0-.191.338,2.119,2.119,0,0,0-.1.333,1.761,1.761,0,0,0-.038.276c0,.085-.005.153-.005.2a2.506,2.506,0,0,0,.028.392,1.869,1.869,0,0,0,.073.308,1.677,1.677,0,0,0,.1.237c.037.071.072.132.105.184a1.546,1.546,0,0,0,.159.216c.055.06.1.106.127.136s.081.071.121.1.086.063.137.1c.07.044.152.09.245.136a2.239,2.239,0,0,0,.32.127,2.916,2.916,0,0,0,.42.095,3.547,3.547,0,0,0,.536.036l.191,0a2.761,2.761,0,0,0,.3-.025c.114-.015.239-.038.376-.068a2.536,2.536,0,0,0,.4-.128,2.365,2.365,0,0,0,.4-.21,1.66,1.66,0,0,0,.346-.308c.04-.047.08-.1.12-.159.018-.025.037-.057.059-.092l-.326-.068q-.029.046-.057.085a1.625,1.625,0,0,1-.138.168,1.516,1.516,0,0,1-.458.347,2.161,2.161,0,0,1-.477.167,2.6,2.6,0,0,1-.411.059q-.176.009-.249.009l-.188,0a2.354,2.354,0,0,1-.31-.028l-.211-.042a1.8,1.8,0,0,1-.33-.109,2.288,2.288,0,0,1-.361-.2,1.46,1.46,0,0,1-.35-.329,1.5,1.5,0,0,1-.2-.346,2.108,2.108,0,0,1-.1-.322,1.948,1.948,0,0,1-.044-.277c-.006-.081-.009-.145-.009-.191a2,2,0,0,1,.042-.425,1.83,1.83,0,0,1,.1-.334,1.288,1.288,0,0,1,.139-.255,1.983,1.983,0,0,1,.137-.172,1.332,1.332,0,0,1,.16-.15.959.959,0,0,0,.08-.067,1.786,1.786,0,0,1,.437-.229,2.825,2.825,0,0,1,.4-.111,2.372,2.372,0,0,1,.342-.044c.1,0,.165-.006.209-.006a2.508,2.508,0,0,1,.793.111,2.287,2.287,0,0,1,.485.212,1.921,1.921,0,0,1,.218.166,1.259,1.259,0,0,1,.193.214c.022.034.043.067.064.1l.328-.07-.013-.021a1.8,1.8,0,0,0-.2-.258,2.158,2.158,0,0,0-.23-.2c-.073-.054-.13-.095-.171-.121a1.969,1.969,0,0,0-.435-.2,3.734,3.734,0,0,0-.447-.111,3.222,3.222,0,0,0-.371-.045c-.11-.006-.188-.009-.233-.009" transform="translate(-762.348 -187.369)"></path><path class="a" d="M911.817,227.888a3.955,3.955,0,0,1-.593-.041,3.229,3.229,0,0,1-.475-.108,2.561,2.561,0,0,1-.374-.148,3.19,3.19,0,0,1-.279-.155c-.062-.039-.116-.078-.165-.115s-.1-.079-.15-.126-.087-.09-.147-.156a1.95,1.95,0,0,1-.2-.267c-.037-.058-.078-.129-.12-.209a2.009,2.009,0,0,1-.123-.291,2.24,2.24,0,0,1-.089-.37,2.926,2.926,0,0,1-.032-.45c0-.054,0-.127.006-.219a2.148,2.148,0,0,1,.046-.337,2.549,2.549,0,0,1,.119-.391,1.833,1.833,0,0,1,.238-.423c.033-.045.073-.1.121-.152a2.288,2.288,0,0,1,.209-.21,2.826,2.826,0,0,1,.262-.2,3.067,3.067,0,0,1,.267-.159,2.5,2.5,0,0,1,.46-.177,3.389,3.389,0,0,1,.435-.091c.133-.018.253-.03.357-.035s.171-.006.212-.006.133,0,.253.009a3.417,3.417,0,0,1,.416.05,4.064,4.064,0,0,1,.492.121,2.347,2.347,0,0,1,.521.234c.051.032.115.078.2.139a2.53,2.53,0,0,1,.275.242,2.253,2.253,0,0,1,.252.319c.055.088.1.156.125.2l.155.269-1.093.235-.082-.141c-.038-.064-.073-.122-.107-.174a.886.886,0,0,0-.13-.141,1.536,1.536,0,0,0-.173-.132,2,2,0,0,0-.4-.173,2.153,2.153,0,0,0-.675-.091c-.042,0-.106,0-.194.006a1.96,1.96,0,0,0-.287.037,2.473,2.473,0,0,0-.349.1,1.44,1.44,0,0,0-.322.162,1,1,0,0,1-.092.077.933.933,0,0,0-.115.108,1.659,1.659,0,0,0-.108.137.921.921,0,0,0-.1.182,1.5,1.5,0,0,0-.081.269,1.647,1.647,0,0,0-.033.347c0,.039,0,.093.008.162a1.568,1.568,0,0,0,.036.223,1.764,1.764,0,0,0,.086.265,1.125,1.125,0,0,0,.152.259,1.1,1.1,0,0,0,.26.246,1.969,1.969,0,0,0,.3.166,1.427,1.427,0,0,0,.261.087c.089.019.155.032.2.04a1.933,1.933,0,0,0,.255.023l.181,0c.045,0,.122,0,.23-.008a2.307,2.307,0,0,0,.352-.051,1.764,1.764,0,0,0,.393-.139,1.139,1.139,0,0,0,.346-.264,1.3,1.3,0,0,0,.109-.131,1.572,1.572,0,0,0,.09-.145l.081-.145,1.086.226-.148.268c-.072.131-.13.228-.177.3s-.1.132-.143.188a2.016,2.016,0,0,1-.425.378,2.693,2.693,0,0,1-.458.244,2.913,2.913,0,0,1-.463.147c-.152.033-.285.057-.407.074a3.108,3.108,0,0,1-.337.028l-.2,0m-.012-4.672c-.04,0-.108,0-.206.006s-.214.015-.341.033a3.245,3.245,0,0,0-.414.087,2.338,2.338,0,0,0-.429.165,2.859,2.859,0,0,0-.251.15,2.688,2.688,0,0,0-.245.184,2.161,2.161,0,0,0-.192.192c-.044.052-.083.1-.114.144a1.671,1.671,0,0,0-.218.386,2.317,2.317,0,0,0-.112.366,1.937,1.937,0,0,0-.043.311c0,.089-.006.16-.006.212a2.738,2.738,0,0,0,.03.425,2.108,2.108,0,0,0,.082.343,1.911,1.911,0,0,0,.113.267c.04.077.079.143.114.2a1.779,1.779,0,0,0,.181.245c.058.063.1.111.139.148s.092.081.137.115.1.07.152.107c.079.049.168.1.264.147a2.439,2.439,0,0,0,.35.139,3.089,3.089,0,0,0,.451.1,3.8,3.8,0,0,0,.568.039l.2,0a2.958,2.958,0,0,0,.319-.027c.118-.016.247-.039.394-.071a2.709,2.709,0,0,0,.437-.139,2.508,2.508,0,0,0,.431-.229,1.864,1.864,0,0,0,.391-.348c.043-.051.088-.11.133-.175s.1-.157.168-.282l.042-.076-.755-.157-.023.041a1.848,1.848,0,0,1-.1.159,1.451,1.451,0,0,1-.122.147,1.3,1.3,0,0,1-.394.3,1.939,1.939,0,0,1-.43.151,2.436,2.436,0,0,1-.378.055q-.168.009-.238.009l-.184,0a2.1,2.1,0,0,1-.278-.025c-.045-.008-.112-.021-.2-.041a1.583,1.583,0,0,1-.291-.1,2.113,2.113,0,0,1-.328-.179,1.256,1.256,0,0,1-.3-.283,1.3,1.3,0,0,1-.174-.3,1.933,1.933,0,0,1-.094-.29,1.744,1.744,0,0,1-.04-.246c-.006-.075-.009-.133-.009-.174a1.812,1.812,0,0,1,.037-.381,1.664,1.664,0,0,1,.09-.3,1.085,1.085,0,0,1,.116-.213,1.725,1.725,0,0,1,.121-.152,1.076,1.076,0,0,1,.134-.126l.063-.051,0-.009.026-.018a1.606,1.606,0,0,1,.368-.187,2.642,2.642,0,0,1,.372-.1,2.19,2.19,0,0,1,.311-.04c.091,0,.158-.006.2-.006a2.309,2.309,0,0,1,.727.1,2.115,2.115,0,0,1,.438.19,1.64,1.64,0,0,1,.192.147,1.054,1.054,0,0,1,.157.172c.037.058.074.118.113.183l.024.04.761-.163-.044-.076c-.027-.048-.068-.114-.122-.2a2.1,2.1,0,0,0-.232-.292,2.344,2.344,0,0,0-.255-.224c-.078-.058-.139-.1-.186-.131a2.2,2.2,0,0,0-.483-.217,3.921,3.921,0,0,0-.473-.117,3.267,3.267,0,0,0-.4-.048q-.173-.009-.244-.009m.012,4.381a3.667,3.667,0,0,1-.549-.037,2.938,2.938,0,0,1-.432-.1,2.3,2.3,0,0,1-.332-.131c-.1-.049-.182-.1-.253-.14-.054-.035-.1-.068-.143-.1s-.086-.069-.126-.107-.077-.08-.133-.141a1.615,1.615,0,0,1-.167-.227q-.051-.08-.109-.189a1.786,1.786,0,0,1-.1-.249,1.955,1.955,0,0,1-.077-.322,2.611,2.611,0,0,1-.028-.4c0-.05,0-.119.005-.206a1.842,1.842,0,0,1,.04-.289,2.217,2.217,0,0,1,.106-.346,1.579,1.579,0,0,1,.2-.357c.03-.041.066-.087.108-.137a1.98,1.98,0,0,1,.178-.178,2.587,2.587,0,0,1,.232-.174,2.545,2.545,0,0,1,.239-.142,2.2,2.2,0,0,1,.4-.155,3.146,3.146,0,0,1,.4-.084c.128-.017.235-.028.329-.032s.161-.006.2-.006.125,0,.237.009a3.235,3.235,0,0,1,.381.046,3.8,3.8,0,0,1,.457.113,2.049,2.049,0,0,1,.453.2c.044.028.1.069.177.125a2.283,2.283,0,0,1,.239.21,1.9,1.9,0,0,1,.215.272l.062.1-.1.045-.384.082-.03-.049c-.021-.034-.042-.067-.063-.1a1.166,1.166,0,0,0-.179-.2,1.822,1.822,0,0,0-.208-.158,2.2,2.2,0,0,0-.466-.2,2.427,2.427,0,0,0-.768-.107c-.044,0-.112,0-.206.006a2.3,2.3,0,0,0-.33.043,2.756,2.756,0,0,0-.391.108,1.7,1.7,0,0,0-.418.219.7.7,0,0,1-.077.064,1.3,1.3,0,0,0-.15.141,1.874,1.874,0,0,0-.13.164,1.2,1.2,0,0,0-.13.239,1.745,1.745,0,0,0-.1.32,1.93,1.93,0,0,0-.04.408c0,.044,0,.106.009.184a1.8,1.8,0,0,0,.043.265,2.014,2.014,0,0,0,.1.31,1.431,1.431,0,0,0,.191.327,1.381,1.381,0,0,0,.33.311,2.233,2.233,0,0,0,.348.191,1.728,1.728,0,0,0,.315.1c.093.02.161.033.209.042a2.273,2.273,0,0,0,.3.027l.187,0c.048,0,.129,0,.245-.009a2.545,2.545,0,0,0,.4-.057,2.06,2.06,0,0,0,.458-.161,1.426,1.426,0,0,0,.433-.329,1.535,1.535,0,0,0,.132-.159c.018-.025.036-.053.055-.082l.03-.048.493.1-.059.1c-.023.038-.043.07-.061.1-.042.061-.084.116-.125.165a1.731,1.731,0,0,1-.364.324,2.426,2.426,0,0,1-.409.218,2.647,2.647,0,0,1-.416.132c-.139.03-.267.054-.383.069a2.842,2.842,0,0,1-.3.026l-.193,0m-.012-4.091c-.038,0-.1,0-.194.006s-.193.014-.314.03a2.976,2.976,0,0,0-.377.079,2.039,2.039,0,0,0-.374.143,2.472,2.472,0,0,0-.223.133,2.518,2.518,0,0,0-.215.162,1.861,1.861,0,0,0-.161.161q-.059.069-.1.128a1.4,1.4,0,0,0-.182.32,2,2,0,0,0-.1.32,1.669,1.669,0,0,0-.037.263q-.005.126-.005.2a2.457,2.457,0,0,0,.027.379,1.79,1.79,0,0,0,.07.3,1.61,1.61,0,0,0,.095.226c.036.069.07.128.1.178a1.5,1.5,0,0,0,.151.205c.053.059.095.1.125.133s.075.066.113.1.082.06.131.092c.065.041.146.086.238.132a2.141,2.141,0,0,0,.308.122,2.81,2.81,0,0,0,.408.092,3.5,3.5,0,0,0,.524.035l.189,0a2.669,2.669,0,0,0,.287-.024c.111-.015.235-.038.369-.067a2.436,2.436,0,0,0,.39-.124,2.244,2.244,0,0,0,.381-.2,1.57,1.57,0,0,0,.329-.293c.036-.042.072-.091.109-.143l-.157-.033-.029.042a1.748,1.748,0,0,1-.145.176,1.585,1.585,0,0,1-.482.364,2.212,2.212,0,0,1-.495.173,2.676,2.676,0,0,1-.424.061q-.179.009-.253.009l-.19,0a2.492,2.492,0,0,1-.321-.029l-.215-.043a1.891,1.891,0,0,1-.345-.113,2.4,2.4,0,0,1-.373-.2,1.534,1.534,0,0,1-.369-.347,1.587,1.587,0,0,1-.213-.364,2.136,2.136,0,0,1-.108-.335,1.948,1.948,0,0,1-.046-.288c-.007-.084-.009-.15-.009-.2a2.1,2.1,0,0,1,.043-.442,1.912,1.912,0,0,1,.107-.349,1.37,1.37,0,0,1,.148-.27,1.989,1.989,0,0,1,.143-.179,1.43,1.43,0,0,1,.171-.159.845.845,0,0,0,.072-.06,1.849,1.849,0,0,1,.467-.248,2.888,2.888,0,0,1,.414-.115,2.485,2.485,0,0,1,.354-.045c.1,0,.168-.006.213-.006a2.59,2.59,0,0,1,.819.115,2.341,2.341,0,0,1,.5.221,1.972,1.972,0,0,1,.227.173,1.317,1.317,0,0,1,.206.228l.037.058.155-.033a1.957,1.957,0,0,0-.142-.17,2.043,2.043,0,0,0-.219-.193c-.071-.053-.126-.092-.166-.117a1.874,1.874,0,0,0-.416-.186,3.684,3.684,0,0,0-.437-.108,3.091,3.091,0,0,0-.361-.044c-.108-.005-.184-.008-.229-.008" transform="translate(-761.929 -186.95)"></path><path class="a" d="M947.623,225.214l2.129,4.152h-.682l-.506-1.023h-2.552l-.506,1.023h-.665l2.153-4.152Zm-1.365,2.652h2.053l-.876-1.753c-.02-.039-.035-.073-.047-.1s-.023-.054-.032-.079-.02-.053-.03-.082-.02-.066-.032-.109c-.02.063-.038.118-.056.165s-.052.123-.1.229Z" transform="translate(-791.906 -188.76)"></path><path class="a" d="M949.2,229.029h-.865l-.506-1.024h-2.452l-.505,1.024h-.848l2.237-4.314h.728Zm-.764-.162h.5l-2.046-3.99h-.531l-2.069,3.99h.481l.506-1.024h2.653Zm-.678-1.338h-2.315l.936-1.847c.049-.1.082-.176.1-.221s.035-.1.054-.161l.083-.263.072.266c.011.041.022.076.031.1s.019.054.028.079.02.05.031.076.026.059.045.1Zm-2.052-.162h1.79l-.818-1.635c-.021-.041-.037-.076-.049-.1s-.015-.036-.022-.053q-.03.069-.083.18Z" transform="translate(-791.217 -188.342)"></path><path class="a" d="M948.754,228.76h-1.01l-.506-1.023h-2.372l-.506,1.023h-.994l2.3-4.442h.806Zm-.83-.29h.355l-1.98-3.862h-.194l.093.346c.011.04.021.073.03.1s.018.052.027.076.019.049.03.074.025.057.044.092l.981,1.964h-2.524l.983-1.94c.047-.1.08-.171.1-.215s.034-.1.053-.157l.108-.34h-.181l-2,3.862h.336l.506-1.023h2.733Zm-2.665-1.5h1.582l-.772-1.543-.015-.03-.024.051Z" transform="translate(-790.671 -188.009)"></path><path class="a" d="M948.2,228.421h-1.193L946.5,227.4h-2.272l-.506,1.023h-1.177l2.387-4.6h.905Zm-1.092-.162h.827l-2.195-4.281h-.707l-2.22,4.281h.81l.506-1.023H946.6Zm.617-.129h-.537l-.506-1.023h-2.632l-.506,1.023h-.519l2.086-4.024h.551Zm-.437-.162h.172l-1.9-3.7h-.039l.066.244c.01.038.02.07.029.1s.017.05.026.072.019.048.029.072.024.054.042.088l1.04,2.081h-2.786l1.043-2.057c.045-.094.076-.164.093-.207s.033-.094.052-.153l.074-.235h-.021l-1.918,3.7h.153l.506-1.023h2.833Zm-3.056-1.209h2.261l-.923-1.846c-.019-.037-.034-.069-.046-.1s-.022-.051-.031-.077-.019-.05-.029-.079-.02-.063-.031-.1l-.057-.212-.066.209c-.02.062-.038.116-.055.161s-.051.121-.1.222Zm2.053-.128h-1.844l.926-1.839.088.179Zm-1.581-.162h1.319l-.655-1.31Z" transform="translate(-789.982 -187.589)"></path></g></g></g></svg> 