<?xml version="1.0" encoding="UTF-8"?> <svg xmlns="http://www.w3.org/2000/svg" xmlns:xlink="http://www.w3.org/1999/xlink" width="158" height="52.935" viewBox="0 0 158 52.935"><defs><style>.a{fill:#fff;}.b{clip-path:url(#a);}</style><clipPath id="a"><rect class="a" width="158" height="52.935"></rect></clipPath></defs><g transform="translate(0 0)"><path class="a" d="M32.021,0,.136,22.994l-.135.1,18.7,23.09h4.764l.41-1.365h0l.109-.366.049-.162h0l.367-1.224,2.958,9.87,2.959-9.871,2.96,9.87,2.959-9.871L39.2,52.932l2.027-6.758,116.62-.036H158V44.225h-1.892v.021L41.79,44.282v0h-2l-.59,1.968L36.235,36.38l-2.959,9.87-2.96-9.871-2.958,9.87L24.4,36.379l-2.37,7.91H19.754L2.93,23.417,32.475,1.961,156.108,15.989v.006l1.892.232V14.311L32.361.041Z" transform="translate(0)"></path><g transform="translate(0 0)"><g class="b"><path class="a" d="M362.131,150.358H351.582V142.71a1.149,1.149,0,1,0-2.3,0v8.8a1.151,1.151,0,0,0,1.15,1.149h11.7a1.15,1.15,0,1,0,0-2.3" transform="translate(-292.963 -118.735)"></path><path class="a" d="M724.754,150.358H714.205V142.71a1.15,1.15,0,0,0-2.3,0v8.8a1.151,1.151,0,0,0,1.15,1.149h11.7a1.15,1.15,0,1,0,0-2.3" transform="translate(-597.115 -118.735)"></path><path class="a" d="M803.872,144.2h11.735a1.087,1.087,0,1,0,0-2.174H803.872a1.087,1.087,0,1,0,0,2.174" transform="translate(-673.34 -119.123)"></path><path class="a" d="M815.606,172.166H804.958V169.6h9.526a1.087,1.087,0,1,0,0-2.174H803.871a1.088,1.088,0,0,0-1.087,1.087v4.738a1.088,1.088,0,0,0,1.087,1.087h11.735a1.087,1.087,0,1,0,0-2.174" transform="translate(-673.339 -140.431)"></path><path class="a" d="M450.561,141.75h-7.6a3.205,3.205,0,0,0-3.2,3.2v4.693a3.205,3.205,0,0,0,3.2,3.2h7.6a3.2,3.2,0,0,0,3.2-3.2v-4.693a3.2,3.2,0,0,0-3.2-3.2m1.085,7.895a1.086,1.086,0,0,1-1.085,1.085h-7.6a1.087,1.087,0,0,1-1.085-1.085v-4.693a1.087,1.087,0,0,1,1.085-1.085h7.6a1.086,1.086,0,0,1,1.085,1.085Z" transform="translate(-368.854 -118.894)"></path><path class="a" d="M546.643,148.928a3.2,3.2,0,0,0-1.066-2.1,3.2,3.2,0,0,0,.6-2.09,3.262,3.262,0,0,0-3.3-2.989l-8.374.02-.176,0h0a1.055,1.055,0,0,0,0,2.069l8.655.024a1.085,1.085,0,1,1,0,2.17l-8.453-.012h0a1,1,0,0,0-.837.45,1.075,1.075,0,0,0-.214.643v4.643a1.086,1.086,0,0,0,2.171,0v-3.607h7.335c.03,0,.059,0,.088,0l.384-.01a1.081,1.081,0,0,1,1.078,1.019v2.661l0,.176h.019a1.034,1.034,0,0,0,1.011.85,1.066,1.066,0,0,0,1.056-1.025Z" transform="translate(-447.46 -118.893)"></path><path class="a" d="M907.1,151.82a1.12,1.12,0,0,0-.422-.751l-4.757-3.755,4.185-3.281a1.125,1.125,0,1,0-1.393-1.768l-4.61,3.614-4.563-3.6a1.125,1.125,0,1,0-1.391,1.769l4.131,3.261-4.734,3.711a1.125,1.125,0,0,0,1.392,1.769l5.159-4.045,5.189,4.1a1.117,1.117,0,0,0,.693.24,1.145,1.145,0,0,0,.137-.008,1.126,1.126,0,0,0,.983-1.251" transform="translate(-749.105 -119.124)"></path><path class="a" d="M270.257,150.523l-5.909-8.966a1.15,1.15,0,1,0-1.926,1.256l2.7,4.1h-5.716a.95.95,0,0,0-.7.3,1.129,1.129,0,0,0-.213.247l-2.014,3.013a1.15,1.15,0,0,0,1.958,1.2L260.1,149.2h6.534l1.7,2.574a1.143,1.143,0,0,0,.726.5,1.165,1.165,0,0,0,.24.025,1.15,1.15,0,0,0,.961-1.778" transform="translate(-214.989 -118.294)"></path><path class="a" d="M145.24,126.284a1.176,1.176,0,0,0-1.089.743,1.879,1.879,0,0,1-1.735,1.192H129.743a1.915,1.915,0,0,1-1.883-1.942v-6.591a1.915,1.915,0,0,1,1.883-1.942h12.673a1.878,1.878,0,0,1,1.733,1.187,1.181,1.181,0,0,0,2.1.2,1.167,1.167,0,0,0,.08-1.121,4.618,4.618,0,0,0-4.185-2.685H130.02a4.614,4.614,0,0,0-4.608,4.608v6.052a4.614,4.614,0,0,0,4.608,4.609h12.119a4.626,4.626,0,0,0,4.169-2.648,1.156,1.156,0,0,0-.073-1.116,1.174,1.174,0,0,0-1-.548" transform="translate(-105.19 -96.732)"></path><path class="a" d="M621.778,145.839h11.735a1.087,1.087,0,0,0,0-2.174H621.778a1.087,1.087,0,1,0,0,2.174" transform="translate(-520.608 -120.5)"></path><path class="a" d="M622.865,174.907v-3.664h9.477a1.12,1.12,0,0,0,1.13-.978,1.088,1.088,0,0,0-1.082-1.2H621.778a1.087,1.087,0,0,0-1.087,1.087v4.751a1.087,1.087,0,1,0,2.174,0" transform="translate(-520.608 -141.808)"></path></g></g></g></svg> 