<?xml version="1.0" encoding="UTF-8"?> <svg xmlns="http://www.w3.org/2000/svg" width="60.635" height="54.085" viewBox="0 0 60.635 54.085"><defs><style>.a{fill:#d91015;}</style></defs><g transform="translate(-83.999 -28.113)"><path class="a" d="M142.969,428.458H105.286a1.73,1.73,0,0,0-.2.013,6.877,6.877,0,0,0-13.345,0,1.658,1.658,0,0,0-.206-.013H85.676a1.671,1.671,0,1,0,0,3.342h5.855a1.722,1.722,0,0,0,.2-.013,6.876,6.876,0,0,0,13.348,0,1.7,1.7,0,0,0,.2.013h37.683a1.671,1.671,0,0,0,0-3.342Z" transform="translate(-0.005 -354.809)"></path><path class="a" d="M142.969,224.887h-5.855a1.727,1.727,0,0,0-.2.013,6.876,6.876,0,0,0-13.346,0,1.72,1.72,0,0,0-.2-.013H85.676a1.671,1.671,0,1,0,0,3.342h37.683a1.716,1.716,0,0,0,.2-.013,6.876,6.876,0,0,0,13.346,0,1.724,1.724,0,0,0,.2.013h5.855a1.671,1.671,0,0,0,0-3.342Z" transform="translate(-0.005 -171.403)"></path><path class="a" d="M85.67,24.661h5.855a1.742,1.742,0,0,0,.206-.013,6.877,6.877,0,0,0,13.345,0,1.637,1.637,0,0,0,.2.013h37.683a1.671,1.671,0,0,0,0-3.342H105.28a1.616,1.616,0,0,0-.2.013,6.876,6.876,0,0,0-13.348,0,1.725,1.725,0,0,0-.2-.013H85.67a1.671,1.671,0,1,0,0,3.342Z" transform="translate(0 12)"></path></g></svg> 