<?xml version="1.0" encoding="UTF-8"?> <svg xmlns="http://www.w3.org/2000/svg" xmlns:xlink="http://www.w3.org/1999/xlink" version="1.1" id="Livello_1" x="0px" y="0px" viewBox="0 0 84.3 55.8" style="enable-background:new 0 0 84.3 55.8;" xml:space="preserve"> <style type="text/css"> .st0{fill-rule:evenodd;clip-rule:evenodd;fill:#D91015;} .st1{fill:#D91015;} </style> <path class="st0" d="M2.6,0v0.4C2.6,0.2,2.6,0.1,2.6,0L2.6,0z"></path> <g> <path class="st1" d="M30,46.4c0,5.2-4.2,9.4-9.4,9.4s-9.4-4.2-9.4-9.4H9.3c-2.1,0-3.7-1.7-3.7-3.7V23.9h3.7c1,0,1.9-0.8,1.9-1.9 c0-1-0.8-1.9-1.9-1.9H5.6H2.8c-1,0-1.9-0.8-1.9-1.9c0-1,0.8-1.9,1.9-1.9h2.8v-0.2c0.3,0.2,0.6,0.2,0.9,0.2h6.6c1,0,1.9-0.8,1.9-1.9 s-0.8-1.9-1.9-1.9H6.5c-0.3,0-0.7,0.1-0.9,0.2v-0.2c-1,0-1.9-0.8-1.9-1.9s0.8-1.9,1.9-1.9h11.2c1,0,1.9-0.8,1.9-1.9 s-0.8-1.9-1.9-1.9H5.6H1.8C0.8,5.2,0,4.3,0,3.3s0.8-1.9,1.9-1.9h7.5h45c2.1,0,3.7,1.7,3.7,3.7v3.7h13.4l12.9,12.5v21.2 c0,2.1-1.7,3.7-3.7,3.7H75c0,5.2-4.2,9.4-9.4,9.4s-9.4-4.2-9.4-9.4h-1.9H30z M58.1,27.7h22.5v-3.8L69.3,12.7H58.1V27.7z M65.6,52.1 c3.1,0,5.6-2.5,5.6-5.6s-2.5-5.6-5.6-5.6c-3.1,0-5.6,2.5-5.6,5.6S62.5,52.1,65.6,52.1z M20.6,52.1c3.1,0,5.6-2.5,5.6-5.6 s-2.5-5.6-5.6-5.6S15,43.3,15,46.4S17.5,52.1,20.6,52.1z"></path> </g> </svg> 