<?xml version="1.0" encoding="UTF-8"?> <svg xmlns="http://www.w3.org/2000/svg" width="74.189" height="60.834" viewBox="0 0 74.189 60.834"><g transform="translate(-83.998 -61.598)"><path d="M288.832,454.16h-20.3a1.4,1.4,0,0,0-1.405,1.405v3.28a1.4,1.4,0,0,0,1.405,1.405h20.3a1.4,1.4,0,0,0,1.405-1.405v-3.28A1.4,1.4,0,0,0,288.832,454.16Z" transform="translate(-157.587 -337.819)" fill="#d91015"></path><path d="M264.176,165.083a3.694,3.694,0,0,0-1.718-1.562v16.79a4.384,4.384,0,1,1-5.857,4.139,4.509,4.509,0,0,1,2.889-4.139V163.6a4.48,4.48,0,0,0-1.718,1.484l-10.464,18.274a5.269,5.269,0,0,0-.625,3.9l2.5,12.417a1.5,1.5,0,0,0,1.405,1.171h20.851a1.42,1.42,0,0,0,1.405-1.171l2.5-12.417a5.269,5.269,0,0,0-.625-3.9Z" transform="translate(-139.882 -87.71)" fill="#d91015"></path><path d="M154.36,69.251a3.827,3.827,0,0,0,0-7.653,3.881,3.881,0,0,0-3.593,2.577H124.841v-2.5h-7.575v2.5H91.418A3.881,3.881,0,0,0,87.825,61.6a3.827,3.827,0,0,0,0,7.653,3.881,3.881,0,0,0,3.593-2.577h16.165A34.962,34.962,0,0,0,86.5,95.022H84V102.6h7.575V95.022H89.465a31.845,31.845,0,0,1,27.8-27.8V69.33h7.575V67.221a31.845,31.845,0,0,1,27.8,27.8h-2.109V102.6h7.575V95.022h-2.5a34.962,34.962,0,0,0-21.085-28.348h16.243a3.775,3.775,0,0,0,3.592,2.577Z" fill="#d91015"></path></g></svg> 