<?xml version="1.0" encoding="UTF-8"?> <svg xmlns="http://www.w3.org/2000/svg" width="48.222" height="58.915" viewBox="0 0 48.222 58.915"><defs><style>.a{fill:#d91015;}</style></defs><g transform="translate(-120.815 0.002)"><path class="a" d="M166.273,37.456l-2.619-2.691A20.8,20.8,0,0,0,148.381,0a20.148,20.148,0,0,0-13.892,5.455L131.87,2.834a2.248,2.248,0,0,0-.581-1.673,1.712,1.712,0,0,0-2.4,0,27.739,27.739,0,0,0,17.747,47.277v3.637c-6.764.655-12.074,5.091-12.074,6.837h27.566c0-1.746-5.237-6.182-12.074-6.837V48.439A27.269,27.269,0,0,0,167.8,40.365a1.8,1.8,0,0,0,0-2.473,1.841,1.841,0,0,0-1.527-.436ZM130.633,4.362l2.4,2.473a20.857,20.857,0,0,0,15.274,34.84A20.148,20.148,0,0,0,162.2,36.22l2.4,2.473a23.983,23.983,0,0,1-33.385-.655,24.487,24.487,0,0,1-.582-33.676Z"></path></g></svg> 