<?xml version="1.0" encoding="UTF-8"?> <svg xmlns="http://www.w3.org/2000/svg" xmlns:xlink="http://www.w3.org/1999/xlink" width="130.014" height="53.477" viewBox="0 0 130.014 53.477"><defs><style>.a{fill:#fff;}.b{clip-path:url(#a);}</style><clipPath id="a"><rect class="a" width="130.014" height="53.477"></rect></clipPath></defs><g class="b"><path class="a" d="M401.4,140.99h12.24a1.134,1.134,0,1,0,0-2.267H401.4a1.134,1.134,0,0,0,0,2.267" transform="translate(-337.718 -117.046)"></path><path class="a" d="M401.4,140.99h12.24a1.134,1.134,0,1,0,0-2.267H401.4a1.134,1.134,0,0,0,0,2.267" transform="translate(-337.718 -117.046)"></path><path class="a" d="M413.636,171.006H402.53v-2.674h9.936a1.134,1.134,0,1,0,0-2.268H401.4a1.135,1.135,0,0,0-1.134,1.134v4.941a1.135,1.135,0,0,0,1.134,1.134h12.24a1.134,1.134,0,1,0,0-2.268" transform="translate(-337.717 -140.116)"></path><path class="a" d="M413.636,171.006H402.53v-2.674h9.936a1.134,1.134,0,1,0,0-2.268H401.4a1.135,1.135,0,0,0-1.134,1.134v4.941a1.135,1.135,0,0,0,1.134,1.134h12.24a1.134,1.134,0,1,0,0-2.268" transform="translate(-337.717 -140.116)"></path><path class="a" d="M150.833,121.418a1.226,1.226,0,0,0-1.136.775,1.96,1.96,0,0,1-1.809,1.244H134.67a2,2,0,0,1-1.964-2.026v-6.874a2,2,0,0,1,1.964-2.025h13.218a1.959,1.959,0,0,1,1.807,1.238,1.232,1.232,0,0,0,2.185.21,1.217,1.217,0,0,0,.084-1.169,4.817,4.817,0,0,0-4.365-2.8h-12.64a4.812,4.812,0,0,0-4.807,4.806v6.312a4.812,4.812,0,0,0,4.807,4.807H147.6a4.825,4.825,0,0,0,4.348-2.762,1.2,1.2,0,0,0-.076-1.164,1.224,1.224,0,0,0-1.038-.572" transform="translate(-109.814 -92.803)"></path><path class="a" d="M150.833,121.418a1.226,1.226,0,0,0-1.136.775,1.96,1.96,0,0,1-1.809,1.244H134.67a2,2,0,0,1-1.964-2.026v-6.874a2,2,0,0,1,1.964-2.025h13.218a1.959,1.959,0,0,1,1.807,1.238,1.232,1.232,0,0,0,2.185.21,1.217,1.217,0,0,0,.084-1.169,4.817,4.817,0,0,0-4.365-2.8h-12.64a4.812,4.812,0,0,0-4.807,4.806v6.312a4.812,4.812,0,0,0,4.807,4.807H147.6a4.825,4.825,0,0,0,4.348-2.762,1.2,1.2,0,0,0-.076-1.164,1.224,1.224,0,0,0-1.038-.572" transform="translate(-109.814 -92.803)"></path><path class="a" d="M307.1,138.219l-9.477-.039h-.66a1.48,1.48,0,0,0-1.48,1.48V148.4a1.354,1.354,0,0,0,1.354,1.354h.786l9.477.039a3.339,3.339,0,0,0,3.339-3.339v-4.9a3.339,3.339,0,0,0-3.339-3.339m1.132,8.234a1.132,1.132,0,0,1-1.132,1.132l-9.477-.039v-7.159l9.477.039a1.132,1.132,0,0,1,1.132,1.132Z" transform="translate(-249.314 -116.588)"></path><path class="a" d="M307.1,138.219l-9.477-.039h-.66a1.48,1.48,0,0,0-1.48,1.48V148.4a1.354,1.354,0,0,0,1.354,1.354h.786l9.477.039a3.339,3.339,0,0,0,3.339-3.339v-4.9A3.339,3.339,0,0,0,307.1,138.219Zm1.132,8.234a1.132,1.132,0,0,1-1.132,1.132l-9.477-.039v-7.159l9.477.039a1.132,1.132,0,0,1,1.132,1.132Z" transform="translate(-249.314 -116.588)"></path><path class="a" d="M510.921,142.9l-.107,0c-.019,0-.036-.006-.055-.006h-.147l-.092,0c-.03,0-.061,0-.092,0h-1.873a1.1,1.1,0,0,0-.168-.017H501.67a1.13,1.13,0,0,1,.271-2.227l10.94-.025a1.1,1.1,0,0,0,0-2.158h0l-.184,0-10.647-.021a3.4,3.4,0,0,0-3.44,3.117,3.333,3.333,0,0,0,.631,2.18,3.286,3.286,0,0,0,2.209,1.365l.107,0c.019,0,.036.006.055.006h.147l.092,0c.03,0,.061,0,.092,0h1.873a1.122,1.122,0,0,0,.168.017H510.7a1.13,1.13,0,0,1-.271,2.227l-10.94.025a1.1,1.1,0,0,0,0,2.158h0l.184,0,10.647.021a3.4,3.4,0,0,0,3.44-3.118,3.334,3.334,0,0,0-.631-2.18,3.285,3.285,0,0,0-2.209-1.365" transform="translate(-420.69 -116.797)"></path><path class="a" d="M510.921,142.9l-.107,0c-.019,0-.036-.006-.055-.006h-.147l-.092,0c-.03,0-.061,0-.092,0h-1.873a1.1,1.1,0,0,0-.168-.017H501.67a1.13,1.13,0,0,1,.271-2.227l10.94-.025a1.1,1.1,0,0,0,0-2.158h0l-.184,0-10.647-.021a3.4,3.4,0,0,0-3.44,3.117,3.333,3.333,0,0,0,.631,2.18,3.286,3.286,0,0,0,2.209,1.365l.107,0c.019,0,.036.006.055.006h.147l.092,0c.03,0,.061,0,.092,0h1.873a1.122,1.122,0,0,0,.168.017H510.7a1.13,1.13,0,0,1-.271,2.227l-10.94.025a1.1,1.1,0,0,0,0,2.158h0l.184,0,10.647.021a3.4,3.4,0,0,0,3.44-3.118,3.334,3.334,0,0,0-.631-2.18A3.285,3.285,0,0,0,510.921,142.9Z" transform="translate(-420.69 -116.797)"></path><path class="a" d="M605.787,149.784h-1.058a.771.771,0,0,1-.771-.771V139a.771.771,0,0,1,.771-.771h1.058a.771.771,0,0,1,.771.771v10.017a.771.771,0,0,1-.771.771" transform="translate(-509.583 -116.625)"></path><path class="a" d="M1.3,0h0A1.3,1.3,0,0,1,2.6,1.3v8.959a1.3,1.3,0,0,1-1.3,1.3h0a1.3,1.3,0,0,1-1.3-1.3V1.3A1.3,1.3,0,0,1,1.3,0Z" transform="translate(94.375 21.599)"></path><path class="a" d="M753.867,146.872v-9.1a1.187,1.187,0,0,0-2.374,0v6.882l-9.754-7.39a2.239,2.239,0,0,0-.563-.368c-.04-.02-.076-.035-.114-.049l-.037-.011a1.349,1.349,0,0,0-.175-.045,1.2,1.2,0,0,0-.151-.015l-.035,0h-.009a1.134,1.134,0,0,0-.589.16l-.035.02a.547.547,0,0,0-.052.03.183.183,0,0,0-.033.026l-.035.031a1.181,1.181,0,0,0-.11.095.645.645,0,0,0-.046.055l-.023.028c-.036.044-.056.069-.074.1a.818.818,0,0,0-.04.072l-.027.053a.811.811,0,0,0-.039.08.748.748,0,0,0-.024.078l-.017.058a.82.82,0,0,0-.023.085.9.9,0,0,0-.011.107l0,.027c0,.015,0,.031-.005.048a.282.282,0,0,0,0,.037v9.1a1.187,1.187,0,0,0,2.374,0v-6.813l10.061,7.517a1.181,1.181,0,0,0,1.965-.89" transform="translate(-623.917 -115.24)"></path><path class="a" d="M753.867,146.872v-9.1a1.187,1.187,0,0,0-2.374,0v6.882l-9.754-7.39a2.239,2.239,0,0,0-.563-.368c-.04-.02-.076-.035-.114-.049l-.037-.011a1.349,1.349,0,0,0-.175-.045,1.2,1.2,0,0,0-.151-.015l-.035,0h-.009a1.134,1.134,0,0,0-.589.16l-.035.02a.547.547,0,0,0-.052.03.183.183,0,0,0-.033.026l-.035.031a1.181,1.181,0,0,0-.11.095.645.645,0,0,0-.046.055l-.023.028c-.036.044-.056.069-.074.1a.818.818,0,0,0-.04.072l-.027.053a.811.811,0,0,0-.039.08.748.748,0,0,0-.024.078l-.017.058a.82.82,0,0,0-.023.085.9.9,0,0,0-.011.107l0,.027c0,.015,0,.031-.005.048a.282.282,0,0,0,0,.037v9.1a1.187,1.187,0,0,0,2.374,0v-6.813l10.061,7.517a1.181,1.181,0,0,0,1.965-.89Z" transform="translate(-623.917 -115.24)"></path><path class="a" d="M645.017,142.835H639.35a1.144,1.144,0,1,0,0,2.287h4.62v.738a1.294,1.294,0,0,1-.676.816l-.044.015-.065.024-.081.026-.03.005-.013,0c-.066.01-.131.024-.2.036h-8.694a.981.981,0,0,1-.963-1v-4.58a.981.981,0,0,1,.963-1h8.881a.961.961,0,0,1,.884.606,1.189,1.189,0,0,0,2.1.2,1.156,1.156,0,0,0,.08-1.117,3.6,3.6,0,0,0-3.257-2.072h-8.493a3.575,3.575,0,0,0-3.586,3.556v4.206a3.575,3.575,0,0,0,3.586,3.556h8.493a3.67,3.67,0,0,0,2.809-1.633c.008-.017.012-.035.021-.052a2.429,2.429,0,0,0,.339-.785,3.9,3.9,0,0,0,.066-.464v-2.3a1.077,1.077,0,0,0-1.077-1.077" transform="translate(-532.213 -116.29)"></path><path class="a" d="M645.017,142.835H639.35a1.144,1.144,0,1,0,0,2.287h4.62v.738a1.294,1.294,0,0,1-.676.816l-.044.015-.065.024-.081.026-.03.005-.013,0c-.066.01-.131.024-.2.036h-8.694a.981.981,0,0,1-.963-1v-4.58a.981.981,0,0,1,.963-1h8.881a.961.961,0,0,1,.884.606,1.189,1.189,0,0,0,2.1.2,1.156,1.156,0,0,0,.08-1.117,3.6,3.6,0,0,0-3.257-2.072h-8.493a3.575,3.575,0,0,0-3.586,3.556v4.206a3.575,3.575,0,0,0,3.586,3.556h8.493a3.67,3.67,0,0,0,2.809-1.633c.008-.017.012-.035.021-.052a2.429,2.429,0,0,0,.339-.785,3.9,3.9,0,0,0,.066-.464v-2.3A1.077,1.077,0,0,0,645.017,142.835Z" transform="translate(-532.213 -116.29)"></path><path class="a" d="M128.472,44.679h1.478v1.932h-.159l-88.146.036L39.6,53.475,36.606,43.5l-2.989,9.972-2.99-9.971-2.989,9.972L24.65,43.506l-.371,1.237h0l-.049.163-.111.369h0L23.7,46.654H18.892L0,23.329l.137-.1L32.348,0l.344.042,97.255,15.5v1.936l-97.14-15.5L2.959,23.658l17,21.086h2.3l2.395-7.991,2.988,9.972,2.988-9.971,2.99,9.972,2.989-9.971L39.6,46.727l.6-1.988h2.024v0Z" transform="translate(0 -0.001)"></path><path class="a" d="M549.2,239.544a1.385,1.385,0,0,0-.309-.059q-.123-.007-.19-.007a1.691,1.691,0,0,0-.485.062,2.246,2.246,0,0,0-.29.1l-.028.013v-1.114h-.768v3.564h.768V242l.008,0a1.855,1.855,0,0,0,.31.111,1.892,1.892,0,0,0,.49.052,1.932,1.932,0,0,0,.451-.048A1.864,1.864,0,0,0,549.5,242a1.191,1.191,0,0,0,.269-.168,1.463,1.463,0,0,0,.179-.179,1.113,1.113,0,0,0,.156-.25,1.336,1.336,0,0,0,.084-.241,1.419,1.419,0,0,0,.033-.2q.008-.091.008-.137a1.211,1.211,0,0,0-.292-.831,1.5,1.5,0,0,0-.739-.445m.248,1.281a.579.579,0,0,1-.029.195.635.635,0,0,1-.076.151.6.6,0,0,1-.09.1.783.783,0,0,1-.079.063.638.638,0,0,1-.141.067,1.378,1.378,0,0,1-.153.041.745.745,0,0,1-.118.015l-.085,0c-.022,0-.068,0-.138-.009a1.077,1.077,0,0,1-.221-.045.906.906,0,0,1-.236-.114.444.444,0,0,1-.157-.193.45.45,0,0,1-.048-.146,1.16,1.16,0,0,1-.008-.118,1.06,1.06,0,0,1,.012-.143.554.554,0,0,1,.049-.157.667.667,0,0,1,.117-.166.583.583,0,0,1,.2-.131,1.055,1.055,0,0,1,.174-.057.922.922,0,0,1,.177-.025h.046a1.1,1.1,0,0,1,.186.014.942.942,0,0,1,.181.048.713.713,0,0,1,.129.064.8.8,0,0,1,.091.067.494.494,0,0,1,.108.123.726.726,0,0,1,.065.139.653.653,0,0,1,.029.121.763.763,0,0,1,.008.09" transform="translate(-461.635 -201.269)"></path><path class="a" d="M568.63,246.521l-.772-1.593h-.869l1.215,2.415c-.024.038-.049.076-.075.113a.246.246,0,0,1-.118.086.323.323,0,0,1-.083.022c-.031,0-.055,0-.073,0a.969.969,0,0,1-.16-.014q-.094-.016-.263-.051l-.2-.042v.735l.142.022q.211.032.321.043a2.254,2.254,0,0,0,.235.012,1.2,1.2,0,0,0,.451-.081.869.869,0,0,0,.378-.318l.047-.074c.018-.029.034-.057.049-.083s.032-.059.051-.1l1.388-2.691h-.861Z" transform="translate(-478.391 -206.655)"></path><path class="a" d="M604.825,240.62l.108-.2-.825-.171-.06.106c-.025.043-.048.081-.071.114a1.053,1.053,0,0,1-.085.1.9.9,0,0,1-.272.207,1.4,1.4,0,0,1-.309.109,1.735,1.735,0,0,1-.275.04q-.126.007-.179.007l-.14,0a1.593,1.593,0,0,1-.2-.018l-.153-.031a1.129,1.129,0,0,1-.2-.068,1.528,1.528,0,0,1-.237-.13.861.861,0,0,1-.2-.194.9.9,0,0,1-.12-.2,1.342,1.342,0,0,1-.067-.207,1.235,1.235,0,0,1-.028-.175c0-.054-.006-.1-.006-.126a1.284,1.284,0,0,1,.026-.271,1.187,1.187,0,0,1,.064-.21.75.75,0,0,1,.078-.144,1.338,1.338,0,0,1,.086-.108.763.763,0,0,1,.089-.084c.032-.025.057-.046.076-.063a1.14,1.14,0,0,1,.248-.124,1.961,1.961,0,0,1,.273-.076,1.56,1.56,0,0,1,.225-.029q.1,0,.151,0a1.688,1.688,0,0,1,.528.071,1.5,1.5,0,0,1,.315.135,1.185,1.185,0,0,1,.136.1.689.689,0,0,1,.1.111c.026.041.054.087.084.137l.061.1.833-.179-.117-.2c-.022-.038-.054-.09-.1-.158a1.7,1.7,0,0,0-.2-.247,1.954,1.954,0,0,0-.212-.187c-.064-.048-.114-.083-.153-.108a1.827,1.827,0,0,0-.4-.182,3.207,3.207,0,0,0-.382-.094,2.75,2.75,0,0,0-.322-.039c-.093,0-.158-.007-.2-.007l-.165,0c-.08,0-.173.012-.277.027a2.646,2.646,0,0,0-.337.071,1.943,1.943,0,0,0-.356.137,2.254,2.254,0,0,0-.41.276,1.78,1.78,0,0,0-.162.162c-.037.043-.068.083-.094.118a1.409,1.409,0,0,0-.184.327,1.9,1.9,0,0,0-.093.3,1.63,1.63,0,0,0-.035.26q0,.108,0,.17a2.235,2.235,0,0,0,.025.349,1.742,1.742,0,0,0,.068.286,1.6,1.6,0,0,0,.1.225c.033.063.065.117.093.162a1.482,1.482,0,0,0,.153.207c.047.051.083.09.113.12s.079.07.116.1.079.058.128.089.136.08.215.12a2.04,2.04,0,0,0,.289.115,2.476,2.476,0,0,0,.368.084,3.022,3.022,0,0,0,.46.032l.154,0a2.372,2.372,0,0,0,.261-.022c.1-.013.2-.032.316-.057a2.195,2.195,0,0,0,.359-.114,2.106,2.106,0,0,0,.355-.189,1.555,1.555,0,0,0,.328-.292c.037-.044.074-.092.111-.146s.082-.129.137-.229" transform="translate(-506.816 -200.751)"></path><path class="a" d="M628.419,238.468l0-.014,0,.014h-.342l-1.847,3.563h.895l.393-.8h1.778l.394.8h.907l-1.827-3.563Zm-.549,2.063.531-1.048.524,1.048Z" transform="translate(-528.368 -201.193)"></path><path class="a" d="M656.06,238.544h-.782v3.564h2.928v-.727H656.06Z" transform="translate(-552.885 -201.269)"></path><path class="a" d="M677.557,239.522a1.935,1.935,0,0,0-.092-.3,1.61,1.61,0,0,0-.177-.328,1.8,1.8,0,0,0-.341-.363,1.939,1.939,0,0,0-.416-.26,2.024,2.024,0,0,0-.339-.125,2.965,2.965,0,0,0-.308-.065,2.452,2.452,0,0,0-.258-.027c-.073,0-.129,0-.167,0a2.489,2.489,0,0,0-.53.052,2.67,2.67,0,0,0-.417.125,1.873,1.873,0,0,0-.327.166,2.453,2.453,0,0,0-.221.161,1.374,1.374,0,0,0-.169.157l-.091.1a1.632,1.632,0,0,0-.275.54,2.092,2.092,0,0,0-.085.591q0,.058,0,.155a1.5,1.5,0,0,0,.033.235,2.283,2.283,0,0,0,.076.269,1.48,1.48,0,0,0,.144.3,1.544,1.544,0,0,0,.362.413,2.069,2.069,0,0,0,.391.241,1.845,1.845,0,0,0,.365.128c.106.024.187.04.245.05a3.073,3.073,0,0,0,.317.036q.136.007.2.007a2.716,2.716,0,0,0,.585-.059,2.521,2.521,0,0,0,.466-.148,1.948,1.948,0,0,0,.355-.2,1.7,1.7,0,0,0,.242-.2,1.5,1.5,0,0,0,.26-.356,1.8,1.8,0,0,0,.2-.651c.008-.089.012-.158.012-.208s0-.1-.007-.174a1.943,1.943,0,0,0-.038-.256m-.751.384a1.123,1.123,0,0,1-.014.189l-.023.133a.949.949,0,0,1-.269.483,1.156,1.156,0,0,1-.508.274,1.382,1.382,0,0,1-.3.051q-.144.007-.206.007a1.806,1.806,0,0,1-.595-.08,1.506,1.506,0,0,1-.348-.167,1.164,1.164,0,0,1-.142-.118c-.034-.035-.062-.067-.081-.09a.8.8,0,0,1-.107-.187,1.533,1.533,0,0,1-.064-.2.908.908,0,0,1-.026-.158c0-.051,0-.091,0-.119a1.415,1.415,0,0,1,.017-.216,1.177,1.177,0,0,1,.048-.2.832.832,0,0,1,.115-.232,1.485,1.485,0,0,1,.116-.139.948.948,0,0,1,.265-.189,1.743,1.743,0,0,1,.3-.111,1.79,1.79,0,0,1,.258-.05c.076-.008.128-.013.159-.013l.143,0a2.025,2.025,0,0,1,.215.019,1.724,1.724,0,0,1,.259.059,1.323,1.323,0,0,1,.265.114,1.144,1.144,0,0,1,.24.182.9.9,0,0,1,.183.269,1.18,1.18,0,0,1,.067.187,1.1,1.1,0,0,1,.035.3" transform="translate(-568.126 -200.85)"></path><path class="a" d="M707.624,240.641a.916.916,0,0,0,.348-.231,1.043,1.043,0,0,0,.185-.281,1.019,1.019,0,0,0,.079-.277,1.616,1.616,0,0,0,.015-.194,1.1,1.1,0,0,0-.209-.671,1.049,1.049,0,0,0-.6-.386c-.038-.01-.075-.019-.112-.026a1.174,1.174,0,0,0-.122-.016l-.136-.009c-.053,0-.115-.005-.187-.005h-2.367v3.564h.8v-1.295h1.316l1.094,1.295h1.044l-1.251-1.433c.035-.01.069-.022.1-.034m-.372-.614a.567.567,0,0,1-.143.055.958.958,0,0,1-.173.023q-.1,0-.2,0H705.3v-.838h1.615a1.584,1.584,0,0,1,.167.008.607.607,0,0,1,.128.027.306.306,0,0,1,.092.05.32.32,0,0,1,.077.1.337.337,0,0,1,.049.123.882.882,0,0,1,.01.108.36.36,0,0,1-.025.153.408.408,0,0,1-.059.1.351.351,0,0,1-.106.092" transform="translate(-594.433 -201.269)"></path><path class="a" d="M733.477,242.108h.786v-1.418h2.329v-.713h-2.329v-.7h2.42v-.732h-3.207Z" transform="translate(-618.864 -201.269)"></path><path class="a" d="M758.3,238.544h-.782v3.564h2.928v-.727H758.3Z" transform="translate(-639.144 -201.269)"></path><path class="a" d="M779.286,240.621h2.457V239.9h-2.457v-.627h2.521v-.732h-3.3v3.563h3.422v-.732h-2.64Z" transform="translate(-656.855 -201.269)"></path><path class="a" d="M804.766,240.225l1.64-1.681h-1.1l-1.056,1.142-1.044-1.142h-1.094l1.609,1.685-1.813,1.878H803l1.245-1.336,1.254,1.336h1.115Z" transform="translate(-676.605 -201.269)"></path></g></svg> 