<?xml version="1.0" encoding="UTF-8"?> <svg xmlns="http://www.w3.org/2000/svg" width="60.001" height="57.676" viewBox="0 0 60.001 57.676"><defs><style>.a{fill:#d91015;fill-rule:evenodd;}</style></defs><g transform="translate(-2 -2.62)"><path class="a" d="M21.988,25.944a10.725,10.725,0,0,1-7.8,3.338A10.875,10.875,0,0,1,13.794,7.55a17.344,17.344,0,0,0,8.288,18.394Z" transform="translate(1.331 4.314)"></path><path class="a" d="M41.35,18.424a10.856,10.856,0,0,1-18.75,7.5A17.344,17.344,0,0,0,30.888,7.53,10.931,10.931,0,0,1,41.35,18.424Z" transform="translate(18.026 4.296)"></path><path class="a" d="M12.969,23.37a15.975,15.975,0,0,0-1.744,7.238V42.139H2V34.883A11.531,11.531,0,0,1,12.969,23.37Z" transform="translate(0 18.157)"></path><path class="a" d="M39.119,34.883v7.256H29.894V30.608A15.975,15.975,0,0,0,28.15,23.37,11.531,11.531,0,0,1,39.119,34.883Z" transform="translate(22.882 18.157)"></path><path class="a" d="M36.618,15.3A12.694,12.694,0,1,1,23.924,2.62,12.694,12.694,0,0,1,36.618,15.3Z" transform="translate(8.077 0)"></path><path class="a" d="M41.706,32.612V44.143H9.38V32.612a11.381,11.381,0,0,1,2.625-7.275,10.444,10.444,0,0,1,2.138-2.025,9.656,9.656,0,0,1,2.025-1.2,11.363,11.363,0,0,1,4.8-1.031h9.225a11.363,11.363,0,0,1,4.8,1.031,9.656,9.656,0,0,1,1.988,1.2,10.444,10.444,0,0,1,2.138,2.025,11.381,11.381,0,0,1,2.588,7.275Z" transform="translate(6.458 16.153)"></path></g></svg> 