<?xml version="1.0" encoding="UTF-8"?> <svg xmlns="http://www.w3.org/2000/svg" width="61" height="61" viewBox="0 0 61 61"><defs><style>.a{fill:#d91015;}</style></defs><g transform="translate(-6 -6)"><g transform="translate(6 6)"><path class="a" d="M39.907,29.9a11.492,11.492,0,0,0,.076-1.248A11.411,11.411,0,1,0,29.9,39.907,19.3,19.3,0,0,1,39.907,29.9Z" transform="translate(-2.935 -2.935)"></path><path class="a" d="M44.578,28.156A16.422,16.422,0,1,0,61,44.578,16.44,16.44,0,0,0,44.578,28.156ZM39.916,52.287l-5.795-7.036,2.139-1.763,4.026,4.887L53.079,37.758l1.771,2.134Z" transform="translate(0.001 0.001)"></path><path class="a" d="M32.008,45.81c-.1,0-.195.012-.292.012A14.106,14.106,0,1,1,45.821,31.715c0,.1-.011.195-.013.293a18.746,18.746,0,0,1,11.622.662V29.115L51.448,27.7l-.2-.822a19.958,19.958,0,0,0-2.3-5.555L48.5,20.6l3.234-5.23-3.678-3.677-5.229,3.233-.726-.438a19.991,19.991,0,0,0-5.556-2.3l-.823-.2L34.315,6h-5.2L27.7,11.983l-.823.2a19.992,19.992,0,0,0-5.555,2.3l-.726.439-5.229-3.234-3.678,3.677L14.927,20.6l-.439.726a19.967,19.967,0,0,0-2.3,5.556l-.2.822L6,29.115v5.2l5.983,1.411.2.822a19.971,19.971,0,0,0,2.3,5.556l.439.726L11.693,48.06l3.677,3.677L20.6,48.5l.726.439a19.992,19.992,0,0,0,5.555,2.3l.823.2,1.412,5.983H32.67a18.746,18.746,0,0,1-.663-11.621Z" transform="translate(-6 -6)"></path></g></g></svg> 