<svg xmlns="http://www.w3.org/2000/svg" xmlns:xlink="http://www.w3.org/1999/xlink" width="210.604" height="70.56" viewBox="0 0 210.604 70.56"><defs><style>.a{fill:none;}.b{fill:#c4c5c8;}.c{clip-path:url(#a);}.d{fill:#e20613;}</style><clipPath id="a"><rect class="a" width="210.604" height="70.56"/></clipPath></defs><path class="b" d="M42.681,0,.181,30.65,0,30.781,24.927,61.558l6.349,0,.547-1.819.146-.487.065-.216.488-1.631L36.466,70.56,40.41,57.4l3.945,13.156L48.3,57.4l3.947,13.155,2.7-9.007L210.394,61.5h.21V58.95h-2.522v.029L55.7,59.026l0,0h-2.67l-.786,2.623L48.3,48.494,44.354,61.65,40.41,48.492,36.466,61.649,32.523,48.491,29.364,59.035H26.331L3.9,31.215l39.382-28.6,164.8,18.7v.008l2.522.31V19.077L43.136.057Z" transform="translate(0 0)"/><g transform="translate(0)"><g class="c"><path class="d" d="M510.876,200.549H496.815V190.356a1.533,1.533,0,0,0-3.065,0v11.725a1.534,1.534,0,0,0,1.533,1.533h15.593a1.533,1.533,0,0,0,0-3.065" transform="translate(-418.679 -160.117)"/><path class="d" d="M1023.486,200.535h-14.061V190.343a1.533,1.533,0,1,0-3.065,0v11.725a1.534,1.534,0,0,0,1.533,1.533h15.593a1.533,1.533,0,0,0,0-3.065" transform="translate(-853.351 -160.103)"/><path class="d" d="M1136.276,192.358h15.642a1.449,1.449,0,1,0,0-2.9h-15.643a1.449,1.449,0,1,0,0,2.9Z" transform="translate(-962.285 -160.654)"/><path class="d" d="M1151.921,231.694h-14.193v-3.416h12.7a1.449,1.449,0,1,0,0-2.9h-14.147a1.451,1.451,0,0,0-1.449,1.449v6.314a1.452,1.452,0,0,0,1.449,1.449h15.642a1.449,1.449,0,0,0,0-2.9h0" transform="translate(-962.288 -191.113)"/><path class="d" d="M636.042,189.07H625.918a4.273,4.273,0,0,0-4.268,4.268v6.257a4.271,4.271,0,0,0,4.268,4.266h10.124a4.27,4.27,0,0,0,4.266-4.266v-6.257a4.272,4.272,0,0,0-4.266-4.268m1.446,10.523a1.448,1.448,0,0,1-1.446,1.446H625.918a1.448,1.448,0,0,1-1.446-1.446v-6.257a1.448,1.448,0,0,1,1.446-1.446h10.124a1.447,1.447,0,0,1,1.446,1.446Z" transform="translate(-527.133 -160.323)"/><path class="d" d="M771.665,198.64a4.262,4.262,0,0,0-1.422-2.8,4.257,4.257,0,0,0,.806-2.787,4.348,4.348,0,0,0-4.4-3.984l-11.163.026-.236,0a1.405,1.405,0,0,0,0,2.758l11.537.032a1.446,1.446,0,0,1,0,2.892l-11.266-.017h0a1.333,1.333,0,0,0-1.116.6,1.431,1.431,0,0,0-.286.858v6.19a1.447,1.447,0,0,0,2.895,0V197.6h9.776c.04,0,.079,0,.117-.006l.511-.014a1.439,1.439,0,0,1,1.437,1.359v3.547l0,.236h.026a1.377,1.377,0,0,0,1.347,1.133,1.421,1.421,0,0,0,1.408-1.367l.021-3.854Z" transform="translate(-639.462 -160.323)"/><path class="d" d="M1281.21,202.481a1.487,1.487,0,0,0-.562-1l-6.34-5.005,5.578-4.373a1.5,1.5,0,1,0-1.836-2.372l-.019.015-6.146,4.817-6.082-4.8a1.5,1.5,0,1,0-1.876,2.341l.021.017,5.507,4.347-6.311,4.946A1.5,1.5,0,0,0,1265,203.77l6.877-5.391,6.917,5.46a1.486,1.486,0,0,0,.923.321,1.465,1.465,0,0,0,.182-.011,1.5,1.5,0,0,0,1.311-1.668" transform="translate(-1070.617 -160.617)"/><path class="d" d="M380.938,200.644l-7.876-11.952a1.532,1.532,0,0,0-2.581,1.652l.014.022,3.6,5.47h-7.619a1.267,1.267,0,0,0-.927.4,1.492,1.492,0,0,0-.284.33l-2.685,4.015a1.532,1.532,0,0,0,2.611,1.606l2.2-3.3h8.71l2.261,3.43a1.532,1.532,0,0,0,2.574-1.662l-.007-.011" transform="translate(-307.269 -159.404)"/><path class="d" d="M203.7,166.334a1.569,1.569,0,0,0-1.452.991,2.5,2.5,0,0,1-2.313,1.589H183.045a2.554,2.554,0,0,1-2.51-2.589V157.54a2.552,2.552,0,0,1,2.51-2.588h16.892a2.5,2.5,0,0,1,2.31,1.583,1.575,1.575,0,0,0,2.793.269,1.558,1.558,0,0,0,.106-1.495,6.157,6.157,0,0,0-5.578-3.579H183.413a6.149,6.149,0,0,0-6.143,6.142v8.067a6.149,6.149,0,0,0,6.143,6.142h16.154a6.166,6.166,0,0,0,5.557-3.529,1.539,1.539,0,0,0-.1-1.487,1.565,1.565,0,0,0-1.327-.731" transform="translate(-150.318 -128.661)"/><path class="d" d="M878.866,194.678h15.642a1.449,1.449,0,0,0,0-2.9H878.866a1.449,1.449,0,1,0,0,2.9Z" transform="translate(-744.012 -162.621)"/><path class="d" d="M880.326,235.49v-4.884H892.96a1.5,1.5,0,0,0,1.507-1.3,1.449,1.449,0,0,0-1.3-1.586q-.071-.007-.143-.007H878.879a1.449,1.449,0,0,0-1.449,1.448h0v6.333a1.449,1.449,0,0,0,2.9,0" transform="translate(-744.024 -193.089)"/><path class="b" d="M657.219,317.44V319.8h4.438V317.44h.836v5.791h-.829v-2.74h-4.438v2.74h-.836V317.44Z" transform="translate(-556.591 -269.176)"/><path class="b" d="M661.449,322.187h-1.285v-2.74h-3.982v2.74H654.89V315.94h1.285V318.3h3.982V315.94h1.292Zm-.829-.456h.372V316.4h-.38v2.363h-4.894V316.4h-.372v5.335h.38v-2.74h4.894Z" transform="translate(-555.319 -267.904)"/><path class="b" d="M713.5,317.432v.713h-4.52v1.723h4.4v.689h-4.4v1.952h4.733v.713H708.18V317.43H713.5Z" transform="translate(-600.507 -269.167)"/><path class="b" d="M712.673,322.177H706.68V315.93h5.781V317.1h-4.52v1.267h4.4v1.145h-4.4v1.5h4.733Zm-5.537-.456h5.081v-.257h-4.733v-2.408h4.4v-.233h-4.4v-2.179H712v-.258h-4.868Z" transform="translate(-599.235 -267.895)"/><rect class="b" width="0.836" height="5.791" transform="translate(114.507 48.264)"/><path class="b" d="M752.922,322.187H751.63V315.94h1.292Zm-.836-.456h.38V316.4h-.38Z" transform="translate(-637.351 -267.904)"/><rect class="b" width="0.836" height="5.791" transform="translate(119.806 48.264)"/><path class="b" d="M787.772,322.187H786.48V315.94h1.292Zm-.836-.456h.38V316.4h-.38Z" transform="translate(-666.902 -267.904)"/><path class="b" d="M809.619,321.575c.055.061.106.116.155.169s.1.108.147.169.108.122.16.184.1.125.152.184c-.006-.071-.011-.143-.017-.213s-.011-.144-.017-.222-.009-.141-.012-.21,0-.138,0-.21v-4h.8v5.791h-.8l-4.11-4.339c-.038-.044-.075-.084-.106-.119s-.068-.074-.106-.119a1.678,1.678,0,0,1-.119-.147,1.145,1.145,0,0,0-.119-.14c.011.088.02.173.024.258s.011.17.017.258v4.348h-.8v-5.791h.845Z" transform="translate(-682.488 -269.167)"/><path class="b" d="M804.62,322.179h-1.26v-6.247h1.172l3.985,4.219.094.1.06.065.016.017q0-.089,0-.181V315.93h1.26v6.247h-1.131l-4.177-4.411-.015-.017Zm-.8-.456h.348l0-4.138c-.005-.078-.011-.153-.015-.229s-.013-.16-.023-.243l-.079-.656.467.467a1.364,1.364,0,0,1,.143.168,1.422,1.422,0,0,0,.1.128c.035.041.066.074.093.1l.025.028c.03.033.063.069.1.109l4.035,4.26h.478v-5.335h-.348v3.768q0,.1,0,.2c0,.066.006.133.012.2l.007.1c0,.042.006.083.009.122l.077.925-.462-.545-.1-.118-.056-.068c-.05-.06-.1-.118-.154-.177s-.1-.115-.143-.164l-.061-.066-.1-.105-3.844-4.07h-.519Z" transform="translate(-681.216 -267.895)"/><path class="b" d="M859.54,317.44h.237c.082,0,.164,0,.246.008.065,0,.152.006.258.017a2.786,2.786,0,0,1,.36.065,3.243,3.243,0,0,1,.427.14,2.776,2.776,0,0,1,.455.237,2.4,2.4,0,0,1,.9,1.034,3.291,3.291,0,0,1,.046,2.583,2.576,2.576,0,0,1-.734,1.017,2.489,2.489,0,0,1-.628.386,3.41,3.41,0,0,1-.684.205,5.123,5.123,0,0,1-.722.082c-.246.011-.49.017-.73.017H856.66V317.44Zm-2.051,5.093h1.689c.076-.006.151-.008.222-.008s.154,0,.23-.008c.061,0,.147,0,.263-.012a2.277,2.277,0,0,0,.386-.065,2.537,2.537,0,0,0,.447-.161,1.936,1.936,0,0,0,.841-.781,2.5,2.5,0,0,0,.21-.5,2.323,2.323,0,0,0,.087-.441c.011-.132.017-.233.017-.3a2.53,2.53,0,0,0-.094-.687,2.276,2.276,0,0,0-.271-.61,1.717,1.717,0,0,0-.447-.473,1.9,1.9,0,0,0-.631-.3,2.13,2.13,0,0,0-.447-.07c-.155-.008-.306-.012-.447-.012h-2.051v4.429Z" transform="translate(-726.412 -269.176)"/><path class="b" d="M857.7,322.187H855.16V315.94H858.5c.086,0,.172,0,.259.008a2.657,2.657,0,0,1,.269.018,3.018,3.018,0,0,1,.393.071,3.5,3.5,0,0,1,.458.15,3,3,0,0,1,.492.257,2.616,2.616,0,0,1,.985,1.131,3.537,3.537,0,0,1,.049,2.764,2.811,2.811,0,0,1-.8,1.106,2.712,2.712,0,0,1-.685.422,3.64,3.64,0,0,1-.731.22,5.361,5.361,0,0,1-.755.086c-.263.011-.505.017-.739.017m-2.085-.456H857.7c.228,0,.463-.005.72-.017a4.892,4.892,0,0,0,.69-.078,3.194,3.194,0,0,0,.638-.192,2.25,2.25,0,0,0,.569-.35,2.352,2.352,0,0,0,.669-.927,3.08,3.08,0,0,0-.042-2.406,2.162,2.162,0,0,0-.815-.934,2.57,2.57,0,0,0-.419-.219,3.04,3.04,0,0,0-.4-.13,2.56,2.56,0,0,0-.33-.06c-.1-.01-.179-.015-.233-.015-.09,0-.168-.008-.246-.008h-2.889v4.638h.376v-4.428h2.279c.137,0,.287,0,.458.012a2.372,2.372,0,0,1,.495.077,2.12,2.12,0,0,1,.705.332,1.937,1.937,0,0,1,.506.536,2.5,2.5,0,0,1,.3.671,2.76,2.76,0,0,1,.1.749c0,.073-.005.172-.018.322a2.557,2.557,0,0,1-.1.488,2.736,2.736,0,0,1-.229.544,2.157,2.157,0,0,1-.941.876,2.775,2.775,0,0,1-.489.176,2.521,2.521,0,0,1-.424.072c-.126.008-.218.013-.282.013-.122.008-.278,0-.433.014h-1.476v.142l-.832-.416Zm.832-.7H857.9c.155-.012.3-.006.447-.015.071,0,.152-.005.261-.012a2.025,2.025,0,0,0,.344-.059,2.329,2.329,0,0,0,.408-.147,1.7,1.7,0,0,0,.74-.689,2.253,2.253,0,0,0,.189-.45,2.11,2.11,0,0,0,.078-.4c.011-.132.016-.222.016-.282a2.3,2.3,0,0,0-.086-.625,2.045,2.045,0,0,0-.244-.549,1.486,1.486,0,0,0-.387-.41,1.672,1.672,0,0,0-.556-.261,1.929,1.929,0,0,0-.4-.063c-.164-.008-.307-.012-.436-.012h-1.823Z" transform="translate(-725.14 -267.904)"/><path class="b" d="M905.8,320.886v.213a1.7,1.7,0,0,0,.034.328,1.112,1.112,0,0,0,.234.582,1.454,1.454,0,0,0,.324.271,2.541,2.541,0,0,0,.587.263,3.234,3.234,0,0,0,.988.123l.222-.008a4.082,4.082,0,0,0,.427-.046,3.455,3.455,0,0,0,.512-.119,1.628,1.628,0,0,0,.48-.237,1.106,1.106,0,0,0,.234-.237,1.133,1.133,0,0,0,.111-.181,1.2,1.2,0,0,0,.116-.411c.011-.137.017-.281.017-.435V317.45h.829v3.486c-.006.192-.015.372-.029.546a1.879,1.879,0,0,1-.616,1.213,2.384,2.384,0,0,1-.689.418,3.434,3.434,0,0,1-.8.21,6.081,6.081,0,0,1-.816.058c-.071,0-.184,0-.341-.008a4.15,4.15,0,0,1-1.177-.23,2.478,2.478,0,0,1-.64-.328,1.581,1.581,0,0,1-.389-.353,2.877,2.877,0,0,1-.193-.287,1.779,1.779,0,0,1-.21-.645,6.052,6.052,0,0,1-.036-.677v-3.4h.829v3.438Z" transform="translate(-767.377 -269.184)"/><path class="b" d="M906.684,322.337c-.074,0-.188,0-.348-.008a4.383,4.383,0,0,1-1.246-.242,2.7,2.7,0,0,1-.7-.358,1.777,1.777,0,0,1-.436-.4,3.137,3.137,0,0,1-.211-.313,2.009,2.009,0,0,1-.24-.732,6.3,6.3,0,0,1-.038-.7V315.95h1.285v3.964a1.481,1.481,0,0,0,.026.2l0,.023a.882.882,0,0,0,.186.463,1.216,1.216,0,0,0,.264.218,2.31,2.31,0,0,0,.534.239,3.006,3.006,0,0,0,.915.114l.146,0,.074,0a3.882,3.882,0,0,0,.4-.043,3.264,3.264,0,0,0,.478-.111,1.406,1.406,0,0,0,.415-.2.876.876,0,0,0,.183-.186.921.921,0,0,0,.09-.147.966.966,0,0,0,.094-.332c.01-.133.016-.273.016-.413V315.95h1.285v3.715c-.007.214-.016.4-.03.564a2.1,2.1,0,0,1-.691,1.365,2.6,2.6,0,0,1-.757.461,3.665,3.665,0,0,1-.857.224,6.343,6.343,0,0,1-.846.06m-2.759-5.931v3.176a5.854,5.854,0,0,0,.035.651,1.545,1.545,0,0,0,.183.559,2.742,2.742,0,0,0,.175.26,1.349,1.349,0,0,0,.331.3,2.278,2.278,0,0,0,.591.3,3.923,3.923,0,0,0,1.114.218c.149,0,.26.007.33.007a5.929,5.929,0,0,0,.785-.056,3.218,3.218,0,0,0,.752-.2,2.14,2.14,0,0,0,.623-.378,1.646,1.646,0,0,0,.539-1.064c.012-.156.021-.331.028-.53v-3.251h-.372v3.316c0,.151-.006.3-.017.452a1.422,1.422,0,0,1-.138.493,1.362,1.362,0,0,1-.133.218,1.328,1.328,0,0,1-.28.283,1.858,1.858,0,0,1-.551.273,3.672,3.672,0,0,1-.544.126,4.288,4.288,0,0,1-.453.048l-.074,0-.156.005a3.456,3.456,0,0,1-1.051-.132A2.773,2.773,0,0,1,905,321.2a1.677,1.677,0,0,1-.375-.314,1.346,1.346,0,0,1-.29-.7,1.934,1.934,0,0,1-.036-.361v-.583l0,0v-2.841Z" transform="translate(-766.104 -267.912)"/><path class="b" d="M956.187,317.929l-.131-.128a1.648,1.648,0,0,0-.222-.176,2.816,2.816,0,0,0-.669-.328,3.336,3.336,0,0,0-1.111-.157,4.227,4.227,0,0,0-.771.062,2.776,2.776,0,0,0-.493.128,1.322,1.322,0,0,0-.312.169.878.878,0,0,0-.2.2.693.693,0,0,0-.1.214.732.732,0,0,0-.029.2.665.665,0,0,0,.1.362.611.611,0,0,0,.185.2.931.931,0,0,0,.242.116,1.477,1.477,0,0,0,.268.058c.091.011.176.021.259.033.324.044.643.076.961.094s.639.05.961.094a4.958,4.958,0,0,1,.587.1,2.446,2.446,0,0,1,.435.147,1.651,1.651,0,0,1,.321.193,1.5,1.5,0,0,1,.242.239,1.265,1.265,0,0,1,.259.531,2.324,2.324,0,0,1,.046.383,1.583,1.583,0,0,1-.1.613,1.609,1.609,0,0,1-.192.357,1.637,1.637,0,0,1-.452.436,2.7,2.7,0,0,1-.511.258,2.63,2.63,0,0,1-.455.128q-.2.032-.283.041-.1.016-.328.036c-.154.014-.322.02-.508.02-.044,0-.116,0-.217,0s-.222-.011-.36-.024-.289-.032-.447-.053a4.41,4.41,0,0,1-.468-.09c-.065-.017-.151-.04-.254-.07a3.434,3.434,0,0,1-.37-.135,2.758,2.758,0,0,1-.382-.193,1.567,1.567,0,0,1-.225-.16,1.712,1.712,0,0,1-.357-.328c-.079-.1-.141-.189-.184-.254l.763-.312c.021.027.041.05.058.07s.038.043.065.07a2.36,2.36,0,0,0,.292.234,2.462,2.462,0,0,0,.5.266,3.384,3.384,0,0,0,.508.157q.262.057.488.087a3.849,3.849,0,0,0,.4.033l.246,0c.038,0,.115,0,.23,0a3.609,3.609,0,0,0,.4-.036,2.777,2.777,0,0,0,.48-.116,1.674,1.674,0,0,0,.464-.237.938.938,0,0,0,.21-.21,1.024,1.024,0,0,0,.119-.217.857.857,0,0,0,.053-.2,1.348,1.348,0,0,0,.012-.152.725.725,0,0,0-.131-.435.854.854,0,0,0-.36-.278,2.012,2.012,0,0,0-.414-.123c-.167-.033-.34-.061-.521-.082s-.356-.038-.525-.049-.312-.021-.427-.033c-.278-.021-.523-.046-.734-.07s-.4-.055-.562-.09a2,2,0,0,1-.435-.143,1.4,1.4,0,0,1-.345-.237,1.113,1.113,0,0,1-.229-.275,1.44,1.44,0,0,1-.123-.271.972.972,0,0,1-.049-.239c-.006-.075-.008-.135-.008-.184a1.423,1.423,0,0,1,.3-.911,1.363,1.363,0,0,1,.261-.254,2.291,2.291,0,0,1,.225-.147,3.362,3.362,0,0,1,.734-.258,4.921,4.921,0,0,1,1.177-.119,4.826,4.826,0,0,1,1.4.169,3.584,3.584,0,0,1,.853.368c.049.032.094.062.135.093s.084.064.128.1a1.388,1.388,0,0,1,.237.246,1.732,1.732,0,0,0,.14.172l-.754.3Z" transform="translate(-806.34 -268.36)"/><path class="b" d="M952.277,321.511c-.046,0-.121,0-.228,0s-.233-.011-.373-.025-.293-.032-.454-.054a4.587,4.587,0,0,1-.493-.094c-.069-.018-.157-.041-.263-.073a3.612,3.612,0,0,1-.4-.145,2.985,2.985,0,0,1-.409-.207,1.758,1.758,0,0,1-.245-.173,1.934,1.934,0,0,1-.4-.365c-.093-.122-.155-.207-.2-.274l-.151-.231,1.179-.481.106.136c.016.021.032.039.045.055s.037.042.059.064a2.148,2.148,0,0,0,.259.207,2.256,2.256,0,0,0,.459.242,3.23,3.23,0,0,0,.476.147c.166.036.324.064.468.083a3.559,3.559,0,0,0,.376.032l.239,0h0c.036,0,.111,0,.22,0a3.342,3.342,0,0,0,.377-.034,2.544,2.544,0,0,0,.441-.106,1.452,1.452,0,0,0,.4-.205.725.725,0,0,0,.159-.159.814.814,0,0,0,.091-.168.638.638,0,0,0,.039-.147,1.121,1.121,0,0,0,.01-.126.5.5,0,0,0-.09-.3.623.623,0,0,0-.26-.2,1.791,1.791,0,0,0-.369-.11c-.166-.033-.335-.06-.507-.08-.189-.022-.357-.038-.512-.048-.172-.011-.319-.022-.437-.034-.247-.019-.5-.043-.737-.07-.211-.024-.407-.056-.584-.093a2.227,2.227,0,0,1-.483-.159,1.624,1.624,0,0,1-.405-.278,1.321,1.321,0,0,1-.27-.326,1.674,1.674,0,0,1-.143-.314,1.2,1.2,0,0,1-.06-.294c-.007-.081-.008-.148-.008-.2a1.652,1.652,0,0,1,.349-1.051,1.586,1.586,0,0,1,.306-.3,2.528,2.528,0,0,1,.247-.162l.014-.007a3.586,3.586,0,0,1,.784-.276,5.217,5.217,0,0,1,1.232-.124,5.059,5.059,0,0,1,1.459.177,3.821,3.821,0,0,1,.91.392c.061.04.11.073.154.106s.092.07.141.112a1.6,1.6,0,0,1,.271.282,1.579,1.579,0,0,0,.125.154l.224.243-1.235.5-.091-.141-.113-.11a1.39,1.39,0,0,0-.188-.149,2.587,2.587,0,0,0-.616-.3,3.128,3.128,0,0,0-1.032-.145,4.08,4.08,0,0,0-.738.059,2.567,2.567,0,0,0-.454.118,1.084,1.084,0,0,0-.255.138.638.638,0,0,0-.143.148.466.466,0,0,0-.069.145.513.513,0,0,0-.02.139.439.439,0,0,0,.065.24.389.389,0,0,0,.119.128.706.706,0,0,0,.182.087,1.273,1.273,0,0,0,.227.049c.093.011.18.022.264.034.326.044.634.075.941.092s.646.05.979.1a5.173,5.173,0,0,1,.609.107,2.694,2.694,0,0,1,.475.161,1.891,1.891,0,0,1,.367.221,1.724,1.724,0,0,1,.28.276,1.5,1.5,0,0,1,.3.624,2.566,2.566,0,0,1,.051.424,1.8,1.8,0,0,1-.117.7,1.9,1.9,0,0,1-.732.9,2.944,2.944,0,0,1-.554.281,2.881,2.881,0,0,1-.494.139c-.145.023-.242.037-.3.044s-.173.023-.334.037-.329.021-.528.021m-2.91-1.439.01.014a1.481,1.481,0,0,0,.305.279l.019.015a1.354,1.354,0,0,0,.192.136,2.555,2.555,0,0,0,.353.179,3.274,3.274,0,0,0,.349.128c.1.029.181.051.244.067a4.183,4.183,0,0,0,.442.085c.155.021.3.039.439.052s.25.019.348.024.166,0,.208,0c.185,0,.345-.006.488-.019s.252-.025.312-.035.155-.021.284-.041a2.4,2.4,0,0,0,.409-.116,2.468,2.468,0,0,0,.468-.237,1.411,1.411,0,0,0,.389-.376,1.393,1.393,0,0,0,.166-.308,1.344,1.344,0,0,0,.087-.523,2.1,2.1,0,0,0-.041-.345,1.039,1.039,0,0,0-.211-.432,1.262,1.262,0,0,0-.206-.2,1.423,1.423,0,0,0-.275-.165,2.234,2.234,0,0,0-.393-.133,4.749,4.749,0,0,0-.56-.1c-.326-.045-.643-.076-.948-.093s-.639-.05-.979-.1c-.083-.012-.165-.022-.254-.033a1.722,1.722,0,0,1-.31-.067,1.159,1.159,0,0,1-.3-.144.841.841,0,0,1-.255-.272.886.886,0,0,1-.13-.482.956.956,0,0,1,.038-.256.916.916,0,0,1,.135-.283,1.11,1.11,0,0,1,.246-.254,1.559,1.559,0,0,1,.367-.2,3.061,3.061,0,0,1,.536-.139,4.564,4.564,0,0,1,.81-.065,3.513,3.513,0,0,1,1.178.167,3.051,3.051,0,0,1,.726.356,1.863,1.863,0,0,1,.252.2l.031.03.329-.133a1.185,1.185,0,0,0-.15-.145c-.045-.038-.083-.068-.119-.1s-.08-.056-.125-.086a3.356,3.356,0,0,0-.79-.339,4.626,4.626,0,0,0-1.335-.16,4.724,4.724,0,0,0-1.133.113,3.144,3.144,0,0,0-.677.237,2.083,2.083,0,0,0-.2.129,1.135,1.135,0,0,0-.218.212,1.2,1.2,0,0,0-.252.764c0,.049,0,.1.007.171a.748.748,0,0,0,.037.184,1.235,1.235,0,0,0,.1.228.878.878,0,0,0,.182.218,1.181,1.181,0,0,0,.3.2,1.771,1.771,0,0,0,.381.125c.164.035.346.064.543.087.234.027.478.05.725.069.12.013.259.023.424.033s.34.027.537.05.365.05.54.085a2.238,2.238,0,0,1,.457.136,1.079,1.079,0,0,1,.455.352.965.965,0,0,1,.176.578,1.58,1.58,0,0,1-.014.177,1.089,1.089,0,0,1-.067.255,1.262,1.262,0,0,1-.145.265,1.178,1.178,0,0,1-.261.262,1.9,1.9,0,0,1-.527.269,3.008,3.008,0,0,1-.518.125,3.878,3.878,0,0,1-.427.039c-.117,0-.2,0-.237,0l-.252,0a4.069,4.069,0,0,1-.423-.035c-.155-.02-.326-.051-.505-.09a3.639,3.639,0,0,1-.543-.167,2.7,2.7,0,0,1-.55-.29,2.576,2.576,0,0,1-.319-.256l-.032-.033Z" transform="translate(-804.433 -267.089)"/><path class="b" d="M998.857,317.44v.689h-2.37v5.1h-.8v-5.1H993.32v-.689Z" transform="translate(-842.294 -269.176)"/><path class="b" d="M995.443,322.187h-1.26v-5.1H991.82V315.94h5.994v1.145h-2.37Zm-.8-.456h.348v-5.1h2.37V316.4h-5.081v.233h2.363Z" transform="translate(-841.022 -267.904)"/><path class="b" d="M1039.246,317.423c.12,0,.225,0,.316.008s.169.011.237.017.131.014.189.024.115.024.176.041a1.582,1.582,0,0,1,.906.582,1.679,1.679,0,0,1,.316,1.025,2.585,2.585,0,0,1-.024.312,1.545,1.545,0,0,1-.119.414,1.563,1.563,0,0,1-.278.423,1.335,1.335,0,0,1-.512.336q-.114.041-.251.078c-.09.024-.218.05-.382.078l2.141,2.452h-1.075l-1.96-2.322h-2.8v2.322h-.829V317.42h3.946Zm-3.141,2.805h2.874c.115,0,.236,0,.362-.008a2.052,2.052,0,0,0,.366-.049,1.264,1.264,0,0,0,.333-.128.931.931,0,0,0,.28-.242.988.988,0,0,0,.14-.225.949.949,0,0,0,.074-.406,1.9,1.9,0,0,0-.021-.234.907.907,0,0,0-.128-.333.81.81,0,0,0-.465-.4,1.361,1.361,0,0,0-.292-.061,3.273,3.273,0,0,0-.33-.017H1036.1v2.1Z" transform="translate(-877.891 -269.159)"/><path class="b" d="M1041.191,322.167h-1.683l-1.96-2.322h-2.464v2.322H1033.8V315.92l4.4.007.1,0c.095,0,.176.011.246.017s.146.015.21.027.128.027.2.045a1.8,1.8,0,0,1,1.027.664,1.924,1.924,0,0,1,.363,1.169,2.776,2.776,0,0,1-.026.337,1.781,1.781,0,0,1-.455.959,1.581,1.581,0,0,1-.6.4c-.084.03-.175.058-.271.084l-.01,0Zm-1.471-.456h.467l-2.079-2.382.4-.067c.158-.026.279-.051.359-.073s.163-.047.234-.072a1.118,1.118,0,0,0,.424-.279,1.32,1.32,0,0,0,.235-.358,1.3,1.3,0,0,0,.1-.353,2.355,2.355,0,0,0,.022-.284,1.46,1.46,0,0,0-.273-.888,1.351,1.351,0,0,0-.772-.493c-.064-.017-.115-.03-.167-.039s-.107-.016-.168-.022-.141-.012-.229-.016-.189-.007-.3-.007l-3.718,0v5.335h.373V319.39h3.132Zm-2.014-2.527h-3.1v-2.556h3.423a3.468,3.468,0,0,1,.353.018,1.576,1.576,0,0,1,.34.071,1.031,1.031,0,0,1,.593.5,1.126,1.126,0,0,1,.154.408,2.161,2.161,0,0,1,.024.266,1.178,1.178,0,0,1-.092.5,1.229,1.229,0,0,1-.174.281,1.141,1.141,0,0,1-.344.3,1.49,1.49,0,0,1-.394.151,2.3,2.3,0,0,1-.407.054c-.131,0-.253.008-.372.008m-2.647-.456h2.647c.113,0,.231,0,.354-.007a1.854,1.854,0,0,0,.324-.043,1.031,1.031,0,0,0,.272-.1.7.7,0,0,0,.211-.182.786.786,0,0,0,.112-.179.72.72,0,0,0,.055-.3,1.7,1.7,0,0,0-.019-.208.671.671,0,0,0-.1-.246l-.01-.018a.578.578,0,0,0-.334-.286,1.136,1.136,0,0,0-.242-.05,3.055,3.055,0,0,0-.308-.016h-2.966Z" transform="translate(-876.619 -267.887)"/><rect class="b" width="0.836" height="5.791" transform="translate(165.104 48.264)"/><path class="b" d="M1085.7,322.187h-1.292V315.94h1.292Zm-.836-.456h.38V316.4h-.38Z" transform="translate(-919.534 -267.904)"/><path class="b" d="M1108.165,317.432v.713h-4.52v1.723h4.4v.689h-4.4v1.952h4.733v.713h-5.537V317.43h5.325Z" transform="translate(-935.162 -269.167)"/><path class="b" d="M1107.333,322.177h-5.994V315.93h5.781V317.1h-4.52v1.267h4.4v1.145h-4.4v1.5h4.733Zm-5.537-.456h5.081v-.257h-4.733v-2.408h4.4v-.233h-4.4v-2.179h4.52v-.258H1101.8Z" transform="translate(-933.89 -267.895)"/><path class="b" d="M1148.425,317.929l-.131-.128a1.648,1.648,0,0,0-.222-.176,2.816,2.816,0,0,0-.669-.328,3.336,3.336,0,0,0-1.111-.157,4.227,4.227,0,0,0-.771.062,2.772,2.772,0,0,0-.493.128,1.32,1.32,0,0,0-.312.169.875.875,0,0,0-.2.2.69.69,0,0,0-.1.214.737.737,0,0,0-.029.2.665.665,0,0,0,.1.362.61.61,0,0,0,.186.2.913.913,0,0,0,.243.116,1.476,1.476,0,0,0,.268.058c.091.011.176.021.258.033.324.044.643.076.961.094s.639.05.961.094a4.949,4.949,0,0,1,.587.1,2.506,2.506,0,0,1,.435.147,1.648,1.648,0,0,1,.321.193,1.445,1.445,0,0,1,.242.239,1.265,1.265,0,0,1,.258.531,2.351,2.351,0,0,1,.046.383,1.583,1.583,0,0,1-.1.613,1.608,1.608,0,0,1-.192.357,1.663,1.663,0,0,1-.452.436,2.7,2.7,0,0,1-.511.258,2.628,2.628,0,0,1-.455.128q-.2.032-.283.041-.1.016-.328.036c-.153.014-.322.02-.508.02-.044,0-.116,0-.218,0s-.222-.011-.36-.024-.289-.032-.447-.053a4.4,4.4,0,0,1-.468-.09c-.065-.017-.151-.04-.254-.07a3.441,3.441,0,0,1-.369-.135,2.738,2.738,0,0,1-.382-.193,1.562,1.562,0,0,1-.225-.16,1.715,1.715,0,0,1-.357-.328c-.079-.1-.141-.189-.184-.254l.763-.312c.021.027.041.05.058.07s.038.043.065.07a2.44,2.44,0,0,0,.8.5,3.38,3.38,0,0,0,.508.157q.262.057.488.087a3.851,3.851,0,0,0,.4.033l.246,0c.038,0,.114,0,.229,0a3.653,3.653,0,0,0,.4-.036,2.77,2.77,0,0,0,.48-.116,1.674,1.674,0,0,0,.464-.237.942.942,0,0,0,.21-.21,1.041,1.041,0,0,0,.119-.217.857.857,0,0,0,.053-.2,1.377,1.377,0,0,0,.012-.152.726.726,0,0,0-.131-.435.853.853,0,0,0-.36-.278,2.011,2.011,0,0,0-.413-.123c-.167-.033-.341-.061-.521-.082s-.356-.038-.525-.049-.312-.021-.427-.033c-.28-.021-.523-.046-.734-.07s-.4-.055-.562-.09a2,2,0,0,1-.435-.143,1.4,1.4,0,0,1-.345-.237,1.113,1.113,0,0,1-.229-.275,1.432,1.432,0,0,1-.123-.271.983.983,0,0,1-.049-.239c-.006-.075-.008-.135-.008-.184a1.44,1.44,0,0,1,.088-.529,1.487,1.487,0,0,1,.213-.382,1.36,1.36,0,0,1,.262-.254,2.274,2.274,0,0,1,.225-.147,3.362,3.362,0,0,1,.734-.258,4.922,4.922,0,0,1,1.177-.119,4.825,4.825,0,0,1,1.4.169,3.582,3.582,0,0,1,.853.368c.049.032.094.062.135.093s.084.064.128.1a1.464,1.464,0,0,1,.239.246,1.7,1.7,0,0,0,.14.172l-.754.3Z" transform="translate(-969.352 -268.36)"/><path class="b" d="M1144.52,321.511c-.046,0-.121,0-.228,0s-.233-.011-.373-.025-.294-.032-.455-.054a4.6,4.6,0,0,1-.493-.094c-.069-.018-.156-.041-.263-.072a3.655,3.655,0,0,1-.4-.145,2.981,2.981,0,0,1-.409-.207,1.778,1.778,0,0,1-.245-.173,1.932,1.932,0,0,1-.4-.366c-.094-.122-.155-.207-.2-.274l-.15-.231,1.178-.481.106.136.043.052c.023.027.04.045.062.067a2.22,2.22,0,0,0,.717.449,3.208,3.208,0,0,0,.475.147c.166.036.324.064.468.083a3.6,3.6,0,0,0,.376.032l.239,0c.036,0,.109,0,.22,0a3.431,3.431,0,0,0,.377-.034,2.571,2.571,0,0,0,.441-.106,1.443,1.443,0,0,0,.4-.205.72.72,0,0,0,.16-.159.819.819,0,0,0,.091-.168.636.636,0,0,0,.039-.147,1.09,1.09,0,0,0,.01-.126.5.5,0,0,0-.089-.3.623.623,0,0,0-.26-.2,1.793,1.793,0,0,0-.368-.11c-.166-.033-.335-.06-.507-.08-.189-.022-.357-.038-.512-.048-.172-.011-.318-.022-.437-.034-.248-.019-.491-.042-.737-.07-.211-.024-.407-.056-.584-.093a2.236,2.236,0,0,1-.483-.159,1.631,1.631,0,0,1-.406-.278,1.315,1.315,0,0,1-.27-.326,1.668,1.668,0,0,1-.143-.314,1.21,1.21,0,0,1-.06-.294c-.007-.081-.008-.147-.008-.2a1.654,1.654,0,0,1,.1-.608,1.726,1.726,0,0,1,.246-.442,1.6,1.6,0,0,1,.306-.3,2.552,2.552,0,0,1,.247-.162,3.6,3.6,0,0,1,.8-.283,5.173,5.173,0,0,1,1.232-.124,5.058,5.058,0,0,1,1.459.177,3.816,3.816,0,0,1,.909.392c.061.04.11.073.155.105s.092.071.141.113a1.655,1.655,0,0,1,.271.281,1.55,1.55,0,0,0,.126.155l.225.243-1.2.484-.24-.237a1.418,1.418,0,0,0-.189-.149,2.6,2.6,0,0,0-.616-.3,3.136,3.136,0,0,0-1.032-.145,4.055,4.055,0,0,0-.738.059,2.571,2.571,0,0,0-.455.118,1.081,1.081,0,0,0-.254.138.638.638,0,0,0-.144.149.453.453,0,0,0-.069.145.511.511,0,0,0-.021.139.438.438,0,0,0,.065.24.389.389,0,0,0,.119.128.69.69,0,0,0,.183.087,1.263,1.263,0,0,0,.228.049c.093.011.18.022.265.034.326.044.634.075.941.092s.646.05.979.1a5.171,5.171,0,0,1,.609.108,2.724,2.724,0,0,1,.474.161,1.878,1.878,0,0,1,.367.221,1.674,1.674,0,0,1,.281.277,1.5,1.5,0,0,1,.3.624,2.562,2.562,0,0,1,.051.424,1.8,1.8,0,0,1-.116.7,1.844,1.844,0,0,1-.219.409,1.876,1.876,0,0,1-.513.5,2.93,2.93,0,0,1-.555.281,2.9,2.9,0,0,1-.493.139c-.145.023-.243.037-.3.043s-.173.023-.334.037-.329.021-.528.021m-2.91-1.439.01.014a1.486,1.486,0,0,0,.305.279l.019.014a1.376,1.376,0,0,0,.193.136,2.544,2.544,0,0,0,.353.179,3.282,3.282,0,0,0,.349.128c.1.029.181.051.244.067a4.2,4.2,0,0,0,.443.085c.155.021.3.039.438.052s.25.019.348.024.165,0,.208,0c.186,0,.345-.006.488-.019s.252-.025.312-.035.155-.021.284-.041a2.4,2.4,0,0,0,.409-.116,2.465,2.465,0,0,0,.468-.237,1.425,1.425,0,0,0,.389-.376,1.4,1.4,0,0,0,.166-.308,1.35,1.35,0,0,0,.087-.524,2.079,2.079,0,0,0-.041-.345,1.037,1.037,0,0,0-.211-.432,1.231,1.231,0,0,0-.206-.2,1.43,1.43,0,0,0-.276-.166,2.269,2.269,0,0,0-.393-.133,4.716,4.716,0,0,0-.56-.1c-.326-.045-.643-.076-.948-.093s-.639-.05-.979-.1c-.082-.012-.165-.022-.254-.033a1.7,1.7,0,0,1-.31-.067,1.142,1.142,0,0,1-.3-.144.842.842,0,0,1-.255-.272.887.887,0,0,1-.13-.481.963.963,0,0,1,.038-.257.9.9,0,0,1,.135-.283,1.1,1.1,0,0,1,.246-.253,1.56,1.56,0,0,1,.367-.2,3.064,3.064,0,0,1,.537-.139,4.51,4.51,0,0,1,.81-.065,3.527,3.527,0,0,1,1.178.167,3.066,3.066,0,0,1,.726.356,1.911,1.911,0,0,1,.252.2l.031.031.329-.133a1.255,1.255,0,0,0-.15-.145c-.045-.038-.083-.068-.12-.1s-.08-.056-.125-.085a3.35,3.35,0,0,0-.79-.339,4.626,4.626,0,0,0-1.335-.16,4.754,4.754,0,0,0-1.133.113,3.128,3.128,0,0,0-.684.241,2.146,2.146,0,0,0-.189.125,1.137,1.137,0,0,0-.218.212,1.25,1.25,0,0,0-.179.321,1.2,1.2,0,0,0-.073.443c0,.049,0,.1.007.17a.76.76,0,0,0,.037.184,1.206,1.206,0,0,0,.1.228.882.882,0,0,0,.182.218,1.188,1.188,0,0,0,.3.2,1.768,1.768,0,0,0,.381.125c.164.035.346.064.543.087.24.027.477.05.725.069.12.013.259.023.424.033s.34.027.537.05.365.05.54.085a2.24,2.24,0,0,1,.457.136,1.079,1.079,0,0,1,.455.352.963.963,0,0,1,.176.578,1.561,1.561,0,0,1-.014.177,1.083,1.083,0,0,1-.067.254,1.263,1.263,0,0,1-.145.265,1.182,1.182,0,0,1-.261.262,1.9,1.9,0,0,1-.527.269,3.012,3.012,0,0,1-.518.125,3.963,3.963,0,0,1-.427.039c-.119,0-.2,0-.237,0h0l-.253,0a4.09,4.09,0,0,1-.423-.035c-.155-.021-.326-.051-.505-.09a3.645,3.645,0,0,1-.543-.167,2.673,2.673,0,0,1-.867-.546l-.032-.033Z" transform="translate(-967.447 -267.089)"/><path class="b" d="M1211.554,317.44v5.086h3.846v.705h-4.651V317.44Z" transform="translate(-1026.665 -269.176)"/><path class="b" d="M1214.357,322.187h-5.107V315.94h1.26v5.086h3.847Zm-4.651-.456h4.195v-.249h-3.847V316.4h-.348Z" transform="translate(-1025.393 -267.904)"/><rect class="b" width="0.902" height="0.894" transform="translate(190.501 53.161)"/><path class="b" d="M1252.808,349.5h-1.358v-1.35h1.358Zm-.9-.456h.446v-.438h-.446Z" transform="translate(-1061.177 -295.217)"/><path class="b" d="M1271.124,317.44v5.086h3.847v.705h-4.651V317.44Z" transform="translate(-1077.178 -269.176)"/><path class="b" d="M1273.927,322.187h-5.107V315.94h1.26v5.086h3.847Zm-4.651-.456h4.195v-.249h-3.847V316.4h-.348Z" transform="translate(-1075.906 -267.904)"/><rect class="b" width="0.902" height="0.894" transform="translate(199.556 53.161)"/><path class="b" d="M1312.367,349.5h-1.358v-1.35h1.358Zm-.9-.456h.446v-.438h-.446Z" transform="translate(-1111.681 -295.217)"/><path class="b" d="M1330.8,318.214c-.055-.093-.107-.178-.155-.254a1.474,1.474,0,0,0-.239-.263,2.363,2.363,0,0,0-.278-.213,3.064,3.064,0,0,0-.631-.275,3.3,3.3,0,0,0-1.042-.143c-.061,0-.155,0-.283.008a3.047,3.047,0,0,0-.447.058,3.887,3.887,0,0,0-.534.147,2.29,2.29,0,0,0-.534.271,1.692,1.692,0,0,1-.131.111,1.64,1.64,0,0,0-.2.184,2.451,2.451,0,0,0-.176.222,1.664,1.664,0,0,0-.172.316,2.41,2.41,0,0,0-.131.43,2.64,2.64,0,0,0-.053.549c0,.061,0,.143.012.251a2.371,2.371,0,0,0,.058.357,2.7,2.7,0,0,0,.135.418,1.914,1.914,0,0,0,.254.435,1.813,1.813,0,0,0,.439.414,3.049,3.049,0,0,0,.471.258,2.321,2.321,0,0,0,.423.14c.129.027.224.047.283.058a3.029,3.029,0,0,0,.406.036l.258,0c.065,0,.178,0,.336-.012a3.332,3.332,0,0,0,.541-.078,2.769,2.769,0,0,0,.619-.217,1.912,1.912,0,0,0,.578-.439,2.107,2.107,0,0,0,.176-.213,2.274,2.274,0,0,0,.143-.23l.87.181c-.093.17-.17.3-.229.386a3,3,0,0,1-.181.239,2.485,2.485,0,0,1-.525.468,3.414,3.414,0,0,1-.587.312,3.685,3.685,0,0,1-.594.189c-.2.044-.377.076-.541.1a4.252,4.252,0,0,1-.435.036l-.271,0a5.209,5.209,0,0,1-.78-.053,4.031,4.031,0,0,1-.616-.14,3.348,3.348,0,0,1-.476-.189q-.205-.1-.36-.2c-.076-.049-.144-.1-.205-.143s-.123-.1-.188-.16c-.044-.044-.1-.109-.184-.2a2.33,2.33,0,0,1-.242-.328c-.049-.076-.1-.167-.155-.271a2.544,2.544,0,0,1-.152-.36,2.75,2.75,0,0,1-.111-.464,3.721,3.721,0,0,1-.041-.578c0-.071,0-.169.008-.292a2.583,2.583,0,0,1,.058-.418,3.235,3.235,0,0,1,.152-.5,2.245,2.245,0,0,1,.292-.517q.066-.091.155-.2a3.057,3.057,0,0,1,.263-.263,3.575,3.575,0,0,1,.328-.246,3.885,3.885,0,0,1,.345-.205,3.177,3.177,0,0,1,.578-.222,4.4,4.4,0,0,1,.566-.119c.178-.024.333-.04.467-.046s.228-.008.283-.008.178,0,.336.012a4.533,4.533,0,0,1,.541.065,5.41,5.41,0,0,1,.648.16,3.033,3.033,0,0,1,.657.295c.061.038.143.1.251.176a3.244,3.244,0,0,1,.348.307,2.757,2.757,0,0,1,.307.389c.073.117.129.21.169.275l-.877.189Z" transform="translate(-1123.485 -268.252)"/><path class="b" d="M1327.133,321.415a5.448,5.448,0,0,1-.776-.056,4.274,4.274,0,0,1-.651-.148,3.6,3.6,0,0,1-.508-.2c-.146-.073-.274-.144-.382-.213-.082-.052-.155-.1-.22-.153s-.129-.1-.2-.173c-.054-.054-.117-.121-.2-.211a2.579,2.579,0,0,1-.268-.364c-.055-.086-.111-.183-.163-.285a2.778,2.778,0,0,1-.165-.393,2.966,2.966,0,0,1-.12-.5,3.889,3.889,0,0,1-.043-.613c0-.072,0-.172.008-.3a2.839,2.839,0,0,1,.063-.459,3.484,3.484,0,0,1,.163-.53,2.468,2.468,0,0,1,.322-.57c.045-.062.1-.132.163-.206a3.291,3.291,0,0,1,.286-.286,3.847,3.847,0,0,1,.354-.266,4.149,4.149,0,0,1,.365-.217,3.409,3.409,0,0,1,.623-.24,4.668,4.668,0,0,1,.594-.125c.189-.026.348-.041.489-.047s.237-.008.293-.008.184,0,.347.012a4.766,4.766,0,0,1,.572.069,5.753,5.753,0,0,1,.675.166,3.266,3.266,0,0,1,.706.317c.068.043.146.1.268.188a3.51,3.51,0,0,1,.376.331,3.033,3.033,0,0,1,.335.424c.076.122.133.216.173.282l.166.274-1.386.3-.061-.173c-.049-.083-.1-.159-.14-.228a1.243,1.243,0,0,0-.2-.213,2.152,2.152,0,0,0-.254-.195,2.832,2.832,0,0,0-.573-.248,3.038,3.038,0,0,0-.969-.133c-.064,0-.156,0-.28.007a2.876,2.876,0,0,0-.409.053,3.688,3.688,0,0,0-.5.139,2.067,2.067,0,0,0-.468.235q-.065.06-.135.113a1.349,1.349,0,0,0-.165.156,2.215,2.215,0,0,0-.159.2,1.421,1.421,0,0,0-.147.271,2.186,2.186,0,0,0-.118.389,2.4,2.4,0,0,0-.049.5c0,.059,0,.136.011.237a2.142,2.142,0,0,0,.052.32,2.453,2.453,0,0,0,.124.384,1.674,1.674,0,0,0,.223.383,1.59,1.59,0,0,0,.386.364,2.86,2.86,0,0,0,.436.239,2.117,2.117,0,0,0,.382.126c.124.026.215.045.272.056a2.79,2.79,0,0,0,.371.033l.253,0c.063,0,.172,0,.325-.012a3.1,3.1,0,0,0,.5-.072,2.53,2.53,0,0,0,.569-.2,1.672,1.672,0,0,0,.508-.387,1.97,1.97,0,0,0,.162-.195,2.017,2.017,0,0,0,.127-.2l.081-.149,1.337.278-.147.27c-.088.161-.171.3-.241.4a3.126,3.126,0,0,1-.2.258,2.724,2.724,0,0,1-.573.512,3.649,3.649,0,0,1-.626.333,3.918,3.918,0,0,1-.631.2c-.189.042-.377.077-.56.1a4.44,4.44,0,0,1-.459.038c-.13,0-.222,0-.278,0h-.036m.02-6.109c-.053,0-.143,0-.272.007s-.275.021-.447.044a4.175,4.175,0,0,0-.535.112,2.947,2.947,0,0,0-.537.206,3.663,3.663,0,0,0-.321.191,3.319,3.319,0,0,0-.308.231,2.848,2.848,0,0,0-.239.24c-.052.062-.1.122-.141.179a2.018,2.018,0,0,0-.265.468,3.031,3.031,0,0,0-.141.46,2.379,2.379,0,0,0-.053.382c0,.115-.007.21-.007.279a3.474,3.474,0,0,0,.038.544,2.56,2.56,0,0,0,.1.426,2.313,2.313,0,0,0,.138.328c.046.089.095.174.145.253a2.155,2.155,0,0,0,.221.3c.073.08.132.143.174.185.058.052.113.1.164.138s.12.088.191.133c.095.06.209.124.34.189a3.132,3.132,0,0,0,.441.175,3.855,3.855,0,0,0,.581.132,4.855,4.855,0,0,0,.746.051c.055,0,.143,0,.267,0a3.941,3.941,0,0,0,.41-.034c.17-.024.346-.056.522-.1a3.447,3.447,0,0,0,.557-.177,3.184,3.184,0,0,0,.548-.291,2.271,2.271,0,0,0,.476-.425,2.7,2.7,0,0,0,.167-.22c.017-.025.038-.057.063-.1l-.4-.084c-.023.036-.046.071-.07.1a2.387,2.387,0,0,1-.2.238,2.118,2.118,0,0,1-.643.487,2.988,2.988,0,0,1-.67.236,3.558,3.558,0,0,1-.577.083c-.166.008-.282.013-.349.013l-.264,0a3.281,3.281,0,0,1-.436-.039c-.065-.011-.161-.032-.292-.059a2.568,2.568,0,0,1-.469-.155,3.285,3.285,0,0,1-.506-.278,2.034,2.034,0,0,1-.494-.465,2.127,2.127,0,0,1-.282-.485,2.92,2.92,0,0,1-.147-.454,2.618,2.618,0,0,1-.063-.391c-.008-.118-.013-.205-.013-.27a2.838,2.838,0,0,1,.058-.595,2.633,2.633,0,0,1,.143-.471,1.893,1.893,0,0,1,.2-.36,2.652,2.652,0,0,1,.194-.244,1.846,1.846,0,0,1,.224-.211,1.489,1.489,0,0,0,.116-.1l.027-.022a2.515,2.515,0,0,1,.587-.3,4.118,4.118,0,0,1,.564-.156,3.312,3.312,0,0,1,.479-.062c.136-.005.233-.008.3-.008a3.481,3.481,0,0,1,1.108.153,3.307,3.307,0,0,1,.679.3,2.633,2.633,0,0,1,.316.24,1.7,1.7,0,0,1,.273.3c.028.044.056.088.083.133l.4-.087a2.554,2.554,0,0,0-.279-.352,2.984,2.984,0,0,0-.32-.282c-.107-.079-.182-.132-.234-.165a2.8,2.8,0,0,0-.6-.271,5.25,5.25,0,0,0-.621-.153,4.321,4.321,0,0,0-.514-.062c-.15-.007-.259-.012-.322-.012" transform="translate(-1122.214 -266.98)"/><rect class="b" width="0.902" height="0.894" transform="translate(209.427 53.161)"/><path class="b" d="M1377.287,349.5h-1.358v-1.35h1.358Zm-.9-.456h.446v-.438h-.446Z" transform="translate(-1166.73 -295.217)"/></g></g></svg>